<svg xmlns="http://www.w3.org/2000/svg" xmlns:xlink="http://www.w3.org/1999/xlink" width="1080" viewBox="0 0 810 809.999993" height="1080" preserveAspectRatio="xMidYMid meet"><defs><g></g><clipPath id="7a4792e8fe"><path d="M 25.097656 449 L 132 449 L 132 554 L 25.097656 554 Z M 25.097656 449 " clip-rule="nonzero"></path></clipPath><clipPath id="d379fda874"><path d="M 678 449 L 784.847656 449 L 784.847656 554 L 678 554 Z M 678 449 " clip-rule="nonzero"></path></clipPath><clipPath id="7a86055f1b"><path d="M 25.097656 60.238281 L 132 60.238281 L 132 165 L 25.097656 165 Z M 25.097656 60.238281 " clip-rule="nonzero"></path></clipPath><clipPath id="292375b17a"><path d="M 678 60.238281 L 784.847656 60.238281 L 784.847656 165 L 678 165 Z M 678 60.238281 " clip-rule="nonzero"></path></clipPath><clipPath id="cf976801a3"><path d="M 25.097656 60.238281 L 784.847656 60.238281 L 784.847656 554 L 25.097656 554 Z M 25.097656 60.238281 " clip-rule="nonzero"></path></clipPath></defs><path fill="#8b1e3f" d="M 562.28125 156.785156 L 247.742188 156.785156 C 247.03125 156.785156 246.324219 156.714844 245.628906 156.578125 C 244.929688 156.4375 244.253906 156.234375 243.597656 155.960938 C 242.941406 155.6875 242.316406 155.355469 241.726562 154.960938 C 241.132812 154.566406 240.585938 154.117188 240.085938 153.613281 C 239.582031 153.113281 239.132812 152.566406 238.738281 151.972656 C 238.34375 151.382812 238.007812 150.757812 237.738281 150.101562 C 237.464844 149.445312 237.257812 148.769531 237.121094 148.070312 C 236.980469 147.375 236.914062 146.671875 236.914062 145.960938 C 236.914062 145.25 236.980469 144.542969 237.121094 143.847656 C 237.257812 143.152344 237.464844 142.472656 237.738281 141.816406 C 238.007812 141.160156 238.34375 140.535156 238.738281 139.945312 C 239.132812 139.355469 239.582031 138.808594 240.085938 138.304688 C 240.585938 137.800781 241.132812 137.355469 241.726562 136.957031 C 242.316406 136.5625 242.941406 136.230469 243.597656 135.957031 C 244.253906 135.6875 244.929688 135.480469 245.628906 135.34375 C 246.324219 135.203125 247.03125 135.132812 247.742188 135.132812 L 562.28125 135.132812 C 562.992188 135.132812 563.695312 135.203125 564.394531 135.34375 C 565.089844 135.480469 565.769531 135.6875 566.425781 135.957031 C 567.082031 136.230469 567.707031 136.5625 568.296875 136.957031 C 568.890625 137.355469 569.4375 137.800781 569.9375 138.304688 C 570.441406 138.808594 570.890625 139.355469 571.285156 139.945312 C 571.679688 140.535156 572.015625 141.160156 572.285156 141.816406 C 572.558594 142.472656 572.761719 143.152344 572.902344 143.847656 C 573.039062 144.542969 573.109375 145.25 573.109375 145.960938 C 573.109375 146.671875 573.039062 147.375 572.902344 148.070312 C 572.761719 148.769531 572.558594 149.445312 572.285156 150.101562 C 572.015625 150.757812 571.679688 151.382812 571.285156 151.972656 C 570.890625 152.566406 570.441406 153.113281 569.9375 153.613281 C 569.4375 154.117188 568.890625 154.566406 568.296875 154.960938 C 567.707031 155.355469 567.082031 155.6875 566.425781 155.960938 C 565.769531 156.234375 565.089844 156.4375 564.394531 156.578125 C 563.695312 156.714844 562.992188 156.785156 562.28125 156.785156 Z M 562.28125 156.785156 " fill-opacity="1" fill-rule="nonzero"></path><path fill="#8b1e3f" d="M 493.457031 217.207031 L 316.566406 217.207031 C 315.855469 217.207031 315.152344 217.140625 314.453125 217 C 313.757812 216.863281 313.082031 216.65625 312.421875 216.382812 C 311.765625 216.113281 311.140625 215.777344 310.550781 215.382812 C 309.960938 214.988281 309.414062 214.539062 308.910156 214.039062 C 308.40625 213.535156 307.957031 212.988281 307.5625 212.398438 C 307.167969 211.804688 306.835938 211.183594 306.5625 210.527344 C 306.289062 209.867188 306.085938 209.191406 305.945312 208.496094 C 305.808594 207.796875 305.738281 207.09375 305.738281 206.382812 C 305.738281 205.671875 305.808594 204.96875 305.945312 204.269531 C 306.085938 203.574219 306.289062 202.898438 306.5625 202.242188 C 306.835938 201.582031 307.167969 200.960938 307.5625 200.367188 C 307.957031 199.777344 308.40625 199.230469 308.910156 198.730469 C 309.414062 198.226562 309.960938 197.777344 310.550781 197.382812 C 311.140625 196.988281 311.765625 196.652344 312.421875 196.382812 C 313.082031 196.109375 313.757812 195.90625 314.453125 195.765625 C 315.152344 195.628906 315.855469 195.558594 316.566406 195.558594 L 493.453125 195.558594 C 494.164062 195.558594 494.871094 195.628906 495.566406 195.765625 C 496.265625 195.90625 496.941406 196.109375 497.597656 196.382812 C 498.253906 196.652344 498.878906 196.988281 499.46875 197.382812 C 500.0625 197.777344 500.609375 198.226562 501.113281 198.730469 C 501.613281 199.230469 502.0625 199.777344 502.457031 200.367188 C 502.851562 200.960938 503.1875 201.582031 503.457031 202.242188 C 503.730469 202.898438 503.9375 203.574219 504.074219 204.269531 C 504.214844 204.96875 504.285156 205.671875 504.285156 206.382812 C 504.285156 207.09375 504.214844 207.796875 504.074219 208.496094 C 503.9375 209.191406 503.730469 209.867188 503.457031 210.527344 C 503.1875 211.183594 502.851562 211.804688 502.457031 212.398438 C 502.0625 212.988281 501.613281 213.535156 501.113281 214.039062 C 500.609375 214.539062 500.0625 214.988281 499.46875 215.382812 C 498.878906 215.777344 498.253906 216.113281 497.597656 216.382812 C 496.941406 216.65625 496.265625 216.863281 495.566406 217 C 494.871094 217.140625 494.164062 217.207031 493.453125 217.207031 Z M 493.457031 217.207031 " fill-opacity="1" fill-rule="nonzero"></path><g clip-path="url(#7a4792e8fe)"><path fill="#8b1e3f" d="M 121.117188 553.757812 L 36.257812 553.757812 C 35.546875 553.757812 34.839844 553.6875 34.144531 553.550781 C 33.445312 553.410156 32.769531 553.207031 32.113281 552.933594 C 31.457031 552.664062 30.832031 552.328125 30.242188 551.933594 C 29.648438 551.539062 29.101562 551.089844 28.597656 550.585938 C 28.097656 550.085938 27.648438 549.539062 27.253906 548.945312 C 26.859375 548.355469 26.523438 547.730469 26.253906 547.074219 C 25.980469 546.417969 25.773438 545.742188 25.636719 545.046875 C 25.496094 544.347656 25.429688 543.644531 25.429688 542.933594 L 25.429688 460.835938 C 25.429688 460.140625 25.496094 459.449219 25.628906 458.765625 C 25.761719 458.082031 25.957031 457.417969 26.21875 456.773438 C 26.480469 456.128906 26.800781 455.515625 27.179688 454.929688 C 27.5625 454.347656 27.992188 453.804688 28.476562 453.304688 C 28.960938 452.804688 29.488281 452.355469 30.0625 451.957031 C 30.632812 451.558594 31.234375 451.21875 31.871094 450.9375 C 32.507812 450.65625 33.167969 450.4375 33.847656 450.28125 C 34.523438 450.128906 35.210938 450.039062 35.910156 450.015625 C 36.914062 449.984375 37.929688 449.960938 38.945312 449.960938 C 40.464844 449.964844 41.988281 450.003906 43.507812 450.078125 C 45.027344 450.15625 46.542969 450.269531 48.058594 450.417969 C 49.570312 450.570312 51.082031 450.757812 52.585938 450.984375 C 54.089844 451.207031 55.589844 451.46875 57.082031 451.765625 C 58.574219 452.0625 60.058594 452.398438 61.535156 452.769531 C 63.007812 453.140625 64.476562 453.546875 65.929688 453.988281 C 67.386719 454.433594 68.832031 454.910156 70.261719 455.421875 C 71.695312 455.9375 73.113281 456.484375 74.519531 457.066406 C 75.925781 457.652344 77.316406 458.265625 78.691406 458.917969 C 80.066406 459.570312 81.421875 460.253906 82.765625 460.972656 C 84.105469 461.6875 85.429688 462.4375 86.734375 463.222656 C 88.039062 464.003906 89.324219 464.816406 90.589844 465.664062 C 91.855469 466.507812 93.097656 467.382812 94.320312 468.289062 C 95.542969 469.195312 96.742188 470.132812 97.917969 471.097656 C 99.09375 472.0625 100.246094 473.054688 101.371094 474.078125 C 102.5 475.101562 103.601562 476.148438 104.675781 477.222656 C 105.753906 478.300781 106.800781 479.402344 107.824219 480.527344 C 108.84375 481.65625 109.839844 482.804688 110.804688 483.980469 C 111.769531 485.15625 112.707031 486.355469 113.613281 487.578125 C 114.519531 488.796875 115.394531 490.042969 116.242188 491.304688 C 117.085938 492.570312 117.902344 493.855469 118.683594 495.160156 C 119.464844 496.464844 120.214844 497.785156 120.933594 499.128906 C 121.652344 500.46875 122.335938 501.828125 122.988281 503.203125 C 123.640625 504.578125 124.257812 505.964844 124.839844 507.371094 C 125.421875 508.777344 125.972656 510.195312 126.484375 511.625 C 126.996094 513.058594 127.476562 514.5 127.917969 515.957031 C 128.363281 517.414062 128.769531 518.878906 129.140625 520.351562 C 129.511719 521.828125 129.84375 523.3125 130.144531 524.804688 C 130.441406 526.292969 130.703125 527.792969 130.925781 529.296875 C 131.152344 530.800781 131.339844 532.308594 131.488281 533.824219 C 131.640625 535.335938 131.753906 536.855469 131.832031 538.371094 C 131.90625 539.890625 131.945312 541.414062 131.945312 542.933594 C 131.945312 543.644531 131.878906 544.347656 131.738281 545.046875 C 131.601562 545.742188 131.394531 546.417969 131.121094 547.074219 C 130.851562 547.730469 130.515625 548.355469 130.121094 548.945312 C 129.726562 549.539062 129.277344 550.085938 128.777344 550.585938 C 128.273438 551.089844 127.726562 551.539062 127.132812 551.933594 C 126.542969 552.328125 125.917969 552.664062 125.261719 552.933594 C 124.605469 553.207031 123.929688 553.410156 123.230469 553.550781 C 122.535156 553.6875 121.828125 553.757812 121.117188 553.757812 Z M 47.085938 532.109375 L 109.464844 532.109375 C 109.167969 530.191406 108.792969 528.292969 108.34375 526.40625 C 107.890625 524.523438 107.363281 522.660156 106.757812 520.816406 C 106.15625 518.976562 105.476562 517.160156 104.726562 515.375 C 103.976562 513.589844 103.152344 511.835938 102.257812 510.113281 C 101.363281 508.394531 100.402344 506.714844 99.371094 505.070312 C 98.339844 503.429688 97.246094 501.832031 96.085938 500.28125 C 94.925781 498.726562 93.703125 497.226562 92.417969 495.773438 C 91.136719 494.320312 89.796875 492.921875 88.398438 491.578125 C 87.003906 490.230469 85.554688 488.945312 84.050781 487.71875 C 82.550781 486.492188 81 485.332031 79.40625 484.230469 C 77.808594 483.128906 76.171875 482.097656 74.492188 481.128906 C 72.8125 480.160156 71.09375 479.265625 69.339844 478.4375 C 67.585938 477.609375 65.804688 476.855469 63.988281 476.171875 C 62.175781 475.488281 60.335938 474.882812 58.472656 474.347656 C 56.605469 473.816406 54.722656 473.359375 52.824219 472.980469 C 50.921875 472.601562 49.007812 472.296875 47.082031 472.074219 Z M 47.085938 532.109375 " fill-opacity="1" fill-rule="nonzero"></path></g><g clip-path="url(#d379fda874)"><path fill="#8b1e3f" d="M 773.765625 553.757812 L 688.90625 553.757812 C 688.195312 553.757812 687.488281 553.6875 686.792969 553.550781 C 686.09375 553.410156 685.417969 553.207031 684.761719 552.933594 C 684.105469 552.664062 683.480469 552.328125 682.886719 551.933594 C 682.296875 551.539062 681.75 551.089844 681.246094 550.585938 C 680.746094 550.085938 680.296875 549.539062 679.902344 548.945312 C 679.503906 548.355469 679.171875 547.730469 678.898438 547.074219 C 678.628906 546.417969 678.421875 545.742188 678.285156 545.046875 C 678.144531 544.347656 678.074219 543.644531 678.074219 542.933594 C 678.078125 541.414062 678.117188 539.890625 678.191406 538.371094 C 678.269531 536.855469 678.382812 535.335938 678.53125 533.824219 C 678.683594 532.308594 678.871094 530.800781 679.097656 529.296875 C 679.320312 527.792969 679.582031 526.292969 679.878906 524.804688 C 680.179688 523.3125 680.511719 521.828125 680.882812 520.351562 C 681.253906 518.878906 681.660156 517.410156 682.105469 515.957031 C 682.546875 514.5 683.023438 513.058594 683.539062 511.625 C 684.050781 510.195312 684.601562 508.777344 685.183594 507.371094 C 685.765625 505.964844 686.382812 504.578125 687.035156 503.203125 C 687.6875 501.828125 688.371094 500.46875 689.089844 499.128906 C 689.804688 497.785156 690.554688 496.464844 691.339844 495.160156 C 692.121094 493.855469 692.9375 492.570312 693.78125 491.304688 C 694.628906 490.042969 695.503906 488.796875 696.410156 487.578125 C 697.316406 486.355469 698.253906 485.15625 699.21875 483.980469 C 700.183594 482.804688 701.175781 481.652344 702.199219 480.527344 C 703.222656 479.402344 704.269531 478.300781 705.347656 477.222656 C 706.421875 476.148438 707.523438 475.097656 708.652344 474.078125 C 709.777344 473.054688 710.929688 472.0625 712.105469 471.097656 C 713.28125 470.132812 714.480469 469.195312 715.703125 468.289062 C 716.925781 467.382812 718.167969 466.507812 719.433594 465.664062 C 720.699219 464.816406 721.984375 464.003906 723.289062 463.222656 C 724.59375 462.4375 725.917969 461.6875 727.257812 460.972656 C 728.597656 460.253906 729.957031 459.570312 731.332031 458.917969 C 732.707031 458.265625 734.097656 457.648438 735.503906 457.066406 C 736.910156 456.484375 738.328125 455.9375 739.761719 455.421875 C 741.191406 454.910156 742.636719 454.433594 744.09375 453.988281 C 745.546875 453.546875 747.015625 453.140625 748.488281 452.769531 C 749.964844 452.398438 751.449219 452.0625 752.941406 451.765625 C 754.433594 451.46875 755.933594 451.207031 757.4375 450.984375 C 758.941406 450.757812 760.449219 450.570312 761.964844 450.417969 C 763.480469 450.269531 764.996094 450.15625 766.515625 450.078125 C 768.035156 450.003906 769.554688 449.964844 771.078125 449.960938 C 772.09375 449.960938 773.105469 449.984375 774.113281 450.015625 C 774.808594 450.039062 775.496094 450.125 776.175781 450.28125 C 776.855469 450.4375 777.511719 450.65625 778.148438 450.9375 C 778.785156 451.21875 779.390625 451.558594 779.960938 451.957031 C 780.53125 452.355469 781.0625 452.804688 781.546875 453.304688 C 782.03125 453.804688 782.460938 454.347656 782.84375 454.929688 C 783.222656 455.515625 783.542969 456.128906 783.804688 456.773438 C 784.066406 457.417969 784.261719 458.082031 784.394531 458.765625 C 784.527344 459.449219 784.59375 460.140625 784.59375 460.835938 L 784.59375 542.933594 C 784.59375 543.644531 784.527344 544.347656 784.386719 545.046875 C 784.25 545.742188 784.042969 546.417969 783.769531 547.074219 C 783.5 547.730469 783.164062 548.355469 782.769531 548.945312 C 782.375 549.539062 781.925781 550.085938 781.421875 550.585938 C 780.921875 551.089844 780.375 551.539062 779.78125 551.933594 C 779.191406 552.328125 778.566406 552.664062 777.910156 552.933594 C 777.253906 553.207031 776.574219 553.410156 775.878906 553.550781 C 775.179688 553.6875 774.476562 553.757812 773.765625 553.757812 Z M 700.554688 532.109375 L 762.9375 532.109375 L 762.9375 472.074219 C 761.011719 472.296875 759.097656 472.601562 757.195312 472.980469 C 755.296875 473.359375 753.414062 473.816406 751.550781 474.347656 C 749.683594 474.882812 747.84375 475.488281 746.03125 476.171875 C 744.214844 476.855469 742.433594 477.609375 740.679688 478.4375 C 738.925781 479.265625 737.210938 480.164062 735.53125 481.128906 C 733.847656 482.097656 732.210938 483.128906 730.617188 484.230469 C 729.019531 485.332031 727.472656 486.496094 725.96875 487.722656 C 724.46875 488.949219 723.019531 490.234375 721.621094 491.578125 C 720.226562 492.921875 718.886719 494.320312 717.601562 495.773438 C 716.320312 497.226562 715.097656 498.730469 713.9375 500.28125 C 712.777344 501.835938 711.679688 503.429688 710.648438 505.074219 C 709.621094 506.714844 708.65625 508.394531 707.761719 510.113281 C 706.871094 511.835938 706.046875 513.589844 705.296875 515.375 C 704.542969 517.160156 703.867188 518.976562 703.265625 520.816406 C 702.660156 522.660156 702.132812 524.523438 701.679688 526.40625 C 701.230469 528.292969 700.855469 530.191406 700.558594 532.109375 Z M 700.554688 532.109375 " fill-opacity="1" fill-rule="nonzero"></path></g><g clip-path="url(#7a86055f1b)"><path fill="#8b1e3f" d="M 38.945312 164.996094 C 37.929688 164.996094 36.917969 164.976562 35.910156 164.941406 C 35.210938 164.921875 34.523438 164.832031 33.847656 164.675781 C 33.167969 164.523438 32.507812 164.304688 31.871094 164.023438 C 31.234375 163.738281 30.632812 163.398438 30.0625 163 C 29.488281 162.601562 28.960938 162.152344 28.476562 161.652344 C 27.992188 161.152344 27.5625 160.613281 27.179688 160.027344 C 26.800781 159.445312 26.480469 158.832031 26.21875 158.183594 C 25.957031 157.539062 25.761719 156.875 25.628906 156.191406 C 25.496094 155.507812 25.429688 154.820312 25.429688 154.125 L 25.429688 71.078125 C 25.429688 70.367188 25.496094 69.664062 25.636719 68.96875 C 25.773438 68.269531 25.980469 67.59375 26.253906 66.9375 C 26.523438 66.28125 26.859375 65.65625 27.253906 65.066406 C 27.648438 64.472656 28.097656 63.925781 28.597656 63.425781 C 29.101562 62.921875 29.648438 62.472656 30.242188 62.078125 C 30.832031 61.683594 31.457031 61.351562 32.113281 61.078125 C 32.769531 60.804688 33.445312 60.601562 34.144531 60.460938 C 34.839844 60.324219 35.546875 60.253906 36.257812 60.253906 L 121.105469 60.253906 C 121.8125 60.253906 122.511719 60.324219 123.207031 60.460938 C 123.898438 60.597656 124.574219 60.800781 125.226562 61.066406 C 125.878906 61.335938 126.5 61.667969 127.089844 62.058594 C 127.679688 62.445312 128.226562 62.890625 128.726562 63.386719 C 129.230469 63.886719 129.679688 64.425781 130.074219 65.011719 C 130.472656 65.597656 130.808594 66.214844 131.082031 66.863281 C 131.355469 67.515625 131.566406 68.1875 131.710938 68.878906 C 131.855469 69.570312 131.929688 70.269531 131.9375 70.976562 L 131.941406 71.269531 C 131.945312 71.519531 131.949219 71.769531 131.949219 72.023438 C 131.945312 73.542969 131.90625 75.066406 131.832031 76.582031 C 131.753906 78.101562 131.640625 79.621094 131.492188 81.132812 C 131.339844 82.648438 131.152344 84.15625 130.929688 85.660156 C 130.703125 87.164062 130.441406 88.664062 130.144531 90.15625 C 129.847656 91.644531 129.511719 93.128906 129.140625 94.605469 C 128.769531 96.078125 128.363281 97.546875 127.921875 99 C 127.476562 100.457031 127 101.898438 126.488281 103.332031 C 125.972656 104.761719 125.425781 106.183594 124.839844 107.585938 C 124.257812 108.992188 123.640625 110.382812 122.992188 111.757812 C 122.339844 113.132812 121.65625 114.488281 120.9375 115.832031 C 120.21875 117.171875 119.46875 118.496094 118.6875 119.796875 C 117.902344 121.101562 117.089844 122.386719 116.242188 123.652344 C 115.398438 124.917969 114.519531 126.160156 113.613281 127.382812 C 112.707031 128.601562 111.773438 129.800781 110.804688 130.976562 C 109.839844 132.152344 108.847656 133.304688 107.824219 134.429688 C 106.804688 135.558594 105.753906 136.660156 104.679688 137.734375 C 103.601562 138.8125 102.5 139.859375 101.375 140.882812 C 100.246094 141.902344 99.09375 142.894531 97.917969 143.859375 C 96.742188 144.828125 95.542969 145.761719 94.320312 146.667969 C 93.097656 147.574219 91.855469 148.449219 90.589844 149.296875 C 89.324219 150.140625 88.042969 150.957031 86.734375 151.738281 C 85.429688 152.519531 84.109375 153.269531 82.765625 153.988281 C 81.425781 154.707031 80.066406 155.390625 78.691406 156.042969 C 77.316406 156.691406 75.925781 157.308594 74.519531 157.890625 C 73.113281 158.476562 71.695312 159.023438 70.261719 159.535156 C 68.832031 160.050781 67.386719 160.527344 65.929688 160.96875 C 64.476562 161.414062 63.007812 161.820312 61.535156 162.191406 C 60.058594 162.5625 58.574219 162.894531 57.082031 163.195312 C 55.589844 163.492188 54.089844 163.753906 52.585938 163.976562 C 51.082031 164.203125 49.570312 164.390625 48.058594 164.539062 C 46.542969 164.691406 45.027344 164.804688 43.507812 164.878906 C 41.988281 164.957031 40.464844 164.996094 38.945312 164.996094 Z M 47.085938 81.90625 L 47.085938 142.886719 C 49.03125 142.660156 50.964844 142.351562 52.882812 141.96875 C 54.804688 141.582031 56.707031 141.117188 58.589844 140.578125 C 60.472656 140.035156 62.328125 139.417969 64.160156 138.722656 C 65.992188 138.03125 67.789062 137.261719 69.558594 136.417969 C 71.328125 135.578125 73.058594 134.664062 74.753906 133.679688 C 76.445312 132.695312 78.09375 131.644531 79.703125 130.523438 C 81.308594 129.40625 82.867188 128.222656 84.375 126.972656 C 85.886719 125.726562 87.34375 124.417969 88.746094 123.050781 C 90.144531 121.683594 91.488281 120.261719 92.773438 118.78125 C 94.058594 117.304688 95.28125 115.777344 96.441406 114.199219 C 97.601562 112.621094 98.695312 110.996094 99.71875 109.328125 C 100.746094 107.660156 101.703125 105.953125 102.585938 104.207031 C 103.472656 102.460938 104.285156 100.679688 105.023438 98.867188 C 105.765625 97.054688 106.429688 95.214844 107.015625 93.347656 C 107.605469 91.480469 108.113281 89.589844 108.546875 87.679688 C 108.980469 85.769531 109.332031 83.847656 109.609375 81.90625 Z M 47.085938 81.90625 " fill-opacity="1" fill-rule="nonzero"></path></g><g clip-path="url(#292375b17a)"><path fill="#8b1e3f" d="M 771.078125 164.996094 C 769.554688 164.996094 768.035156 164.957031 766.515625 164.878906 C 764.996094 164.804688 763.480469 164.691406 761.964844 164.539062 C 760.453125 164.390625 758.941406 164.203125 757.4375 163.976562 C 755.933594 163.753906 754.433594 163.492188 752.941406 163.195312 C 751.449219 162.894531 749.964844 162.5625 748.488281 162.191406 C 747.015625 161.820312 745.546875 161.414062 744.09375 160.96875 C 742.636719 160.527344 741.191406 160.050781 739.761719 159.535156 C 738.328125 159.023438 736.910156 158.476562 735.503906 157.890625 C 734.097656 157.308594 732.707031 156.691406 731.332031 156.042969 C 729.957031 155.390625 728.597656 154.707031 727.257812 153.988281 C 725.914062 153.269531 724.59375 152.519531 723.289062 151.738281 C 721.984375 150.957031 720.699219 150.140625 719.433594 149.296875 C 718.167969 148.449219 716.925781 147.574219 715.703125 146.667969 C 714.480469 145.761719 713.28125 144.828125 712.105469 143.863281 C 710.929688 142.894531 709.777344 141.902344 708.652344 140.882812 C 707.523438 139.859375 706.421875 138.8125 705.347656 137.734375 C 704.269531 136.660156 703.222656 135.558594 702.199219 134.433594 C 701.175781 133.304688 700.183594 132.152344 699.21875 130.976562 C 698.253906 129.800781 697.316406 128.605469 696.410156 127.382812 C 695.503906 126.160156 694.628906 124.917969 693.78125 123.652344 C 692.9375 122.386719 692.121094 121.105469 691.339844 119.800781 C 690.554688 118.496094 689.804688 117.171875 689.089844 115.832031 C 688.371094 114.492188 687.6875 113.132812 687.035156 111.757812 C 686.382812 110.382812 685.765625 108.992188 685.183594 107.589844 C 684.601562 106.183594 684.050781 104.765625 683.539062 103.332031 C 683.023438 101.902344 682.546875 100.457031 682.105469 99.003906 C 681.660156 97.546875 681.253906 96.082031 680.882812 94.605469 C 680.511719 93.132812 680.179688 91.648438 679.878906 90.15625 C 679.582031 88.664062 679.320312 87.167969 679.097656 85.664062 C 678.871094 84.15625 678.683594 82.648438 678.53125 81.136719 C 678.382812 79.621094 678.269531 78.105469 678.191406 76.585938 C 678.117188 75.066406 678.078125 73.546875 678.074219 72.027344 C 678.074219 71.773438 678.074219 71.523438 678.085938 71.273438 L 678.089844 70.976562 C 678.09375 70.273438 678.171875 69.574219 678.316406 68.878906 C 678.457031 68.1875 678.667969 67.519531 678.941406 66.867188 C 679.21875 66.214844 679.554688 65.597656 679.949219 65.015625 C 680.34375 64.429688 680.792969 63.886719 681.296875 63.390625 C 681.800781 62.894531 682.34375 62.449219 682.933594 62.058594 C 683.523438 61.667969 684.144531 61.339844 684.796875 61.070312 C 685.449219 60.800781 686.125 60.597656 686.816406 60.460938 C 687.511719 60.324219 688.210938 60.257812 688.917969 60.257812 L 773.769531 60.257812 C 774.480469 60.257812 775.183594 60.324219 775.878906 60.464844 C 776.578125 60.601562 777.253906 60.808594 777.910156 61.082031 C 778.570312 61.351562 779.191406 61.6875 779.785156 62.082031 C 780.375 62.476562 780.921875 62.925781 781.425781 63.425781 C 781.925781 63.929688 782.375 64.476562 782.769531 65.066406 C 783.167969 65.660156 783.5 66.28125 783.773438 66.9375 C 784.042969 67.59375 784.25 68.273438 784.386719 68.96875 C 784.527344 69.667969 784.597656 70.371094 784.597656 71.082031 L 784.597656 154.125 C 784.597656 154.820312 784.53125 155.511719 784.398438 156.195312 C 784.265625 156.878906 784.066406 157.542969 783.804688 158.1875 C 783.542969 158.832031 783.222656 159.449219 782.84375 160.03125 C 782.464844 160.613281 782.03125 161.15625 781.546875 161.65625 C 781.0625 162.15625 780.535156 162.605469 779.964844 163.003906 C 779.390625 163.402344 778.789062 163.742188 778.152344 164.023438 C 777.515625 164.304688 776.855469 164.523438 776.179688 164.679688 C 775.5 164.835938 774.8125 164.921875 774.117188 164.945312 C 773.109375 164.976562 772.09375 164.996094 771.078125 164.996094 Z M 700.414062 81.90625 C 700.691406 83.847656 701.042969 85.769531 701.476562 87.679688 C 701.910156 89.589844 702.417969 91.480469 703.007812 93.347656 C 703.59375 95.214844 704.257812 97.054688 705 98.867188 C 705.738281 100.679688 706.550781 102.460938 707.433594 104.207031 C 708.320312 105.953125 709.277344 107.660156 710.304688 109.328125 C 711.328125 110.996094 712.421875 112.621094 713.582031 114.199219 C 714.742188 115.777344 715.964844 117.304688 717.246094 118.78125 C 718.53125 120.261719 719.875 121.683594 721.277344 123.050781 C 722.679688 124.417969 724.136719 125.726562 725.644531 126.972656 C 727.15625 128.222656 728.714844 129.40625 730.320312 130.523438 C 731.925781 131.644531 733.578125 132.695312 735.269531 133.679688 C 736.964844 134.664062 738.695312 135.578125 740.464844 136.417969 C 742.230469 137.261719 744.03125 138.03125 745.863281 138.722656 C 747.695312 139.417969 749.550781 140.035156 751.433594 140.578125 C 753.316406 141.117188 755.21875 141.582031 757.136719 141.96875 C 759.058594 142.351562 760.992188 142.660156 762.9375 142.886719 L 762.9375 81.90625 Z M 700.414062 81.90625 " fill-opacity="1" fill-rule="nonzero"></path></g><path fill="#8b1e3f" d="M 449.816406 553.757812 C 445.269531 553 440.863281 552.609375 437.042969 553.628906 C 436.902344 553.667969 436.761719 553.714844 436.621094 553.757812 Z M 449.816406 553.757812 " fill-opacity="1" fill-rule="nonzero"></path><path fill="#8b1e3f" d="M 372.03125 553.757812 C 371.890625 553.714844 371.75 553.667969 371.613281 553.628906 C 367.792969 552.609375 363.386719 553 358.839844 553.757812 Z M 372.03125 553.757812 " fill-opacity="1" fill-rule="nonzero"></path><g clip-path="url(#cf976801a3)"><path fill="#8b1e3f" d="M 773.765625 60.257812 L 36.257812 60.257812 C 35.546875 60.257812 34.839844 60.328125 34.144531 60.464844 C 33.445312 60.605469 32.769531 60.808594 32.113281 61.082031 C 31.457031 61.351562 30.832031 61.6875 30.242188 62.082031 C 29.648438 62.476562 29.101562 62.925781 28.597656 63.429688 C 28.097656 63.929688 27.648438 64.476562 27.253906 65.066406 C 26.859375 65.660156 26.523438 66.28125 26.253906 66.941406 C 25.980469 67.597656 25.773438 68.273438 25.636719 68.96875 C 25.496094 69.667969 25.429688 70.371094 25.429688 71.082031 L 25.429688 542.933594 C 25.429688 543.644531 25.496094 544.347656 25.636719 545.046875 C 25.773438 545.742188 25.980469 546.417969 26.253906 547.074219 C 26.523438 547.730469 26.859375 548.355469 27.253906 548.945312 C 27.648438 549.539062 28.097656 550.085938 28.597656 550.585938 C 29.101562 551.089844 29.648438 551.539062 30.242188 551.933594 C 30.832031 552.328125 31.457031 552.664062 32.113281 552.933594 C 32.769531 553.207031 33.445312 553.410156 34.144531 553.550781 C 34.839844 553.6875 35.546875 553.757812 36.257812 553.757812 L 332.421875 553.757812 C 326.429688 549.503906 324.230469 540.253906 321.222656 532.109375 L 47.085938 532.109375 L 47.085938 81.90625 L 762.9375 81.90625 L 762.9375 532.109375 L 487.425781 532.109375 C 484.417969 540.253906 482.21875 549.503906 476.226562 553.757812 L 773.765625 553.757812 C 774.476562 553.757812 775.179688 553.6875 775.878906 553.550781 C 776.574219 553.410156 777.253906 553.207031 777.910156 552.933594 C 778.566406 552.664062 779.191406 552.328125 779.78125 551.933594 C 780.375 551.539062 780.921875 551.089844 781.421875 550.585938 C 781.925781 550.085938 782.375 549.539062 782.769531 548.945312 C 783.164062 548.355469 783.5 547.730469 783.769531 547.074219 C 784.042969 546.417969 784.25 545.742188 784.386719 545.046875 C 784.527344 544.347656 784.59375 543.644531 784.59375 542.933594 L 784.59375 71.082031 C 784.59375 70.371094 784.527344 69.667969 784.386719 68.96875 C 784.25 68.273438 784.042969 67.597656 783.769531 66.941406 C 783.5 66.28125 783.164062 65.660156 782.769531 65.066406 C 782.375 64.476562 781.925781 63.929688 781.421875 63.429688 C 780.921875 62.925781 780.375 62.476562 779.78125 62.082031 C 779.191406 61.6875 778.566406 61.351562 777.910156 61.082031 C 777.253906 60.808594 776.574219 60.605469 775.878906 60.464844 C 775.179688 60.328125 774.476562 60.257812 773.765625 60.257812 Z M 773.765625 60.257812 " fill-opacity="1" fill-rule="nonzero"></path></g><path fill="#8b1e3f" d="M 404.328125 584.191406 C 393.597656 584.191406 385.359375 577.007812 378.738281 571.230469 C 375.257812 568.195312 371.308594 564.753906 368.816406 564.085938 C 366.039062 563.34375 360.707031 564.378906 356 565.285156 C 347.085938 567.011719 336.980469 568.964844 327.980469 563.761719 C 318.871094 558.492188 315.503906 548.683594 312.535156 540.03125 C 311.003906 535.5625 309.265625 530.5 307.328125 528.5625 C 305.390625 526.625 300.324219 524.890625 295.855469 523.355469 C 287.199219 520.386719 277.390625 517.023438 272.121094 507.917969 C 266.914062 498.921875 268.871094 488.820312 270.59375 479.90625 C 271.503906 475.203125 272.535156 469.871094 271.792969 467.097656 C 271.128906 464.605469 267.683594 460.660156 264.644531 457.175781 C 258.871094 450.558594 251.683594 442.324219 251.683594 431.597656 C 251.683594 420.871094 258.871094 412.636719 264.644531 406.015625 C 267.683594 402.535156 271.128906 398.589844 271.792969 396.097656 C 272.535156 393.324219 271.503906 387.992188 270.59375 383.285156 C 268.867188 374.371094 266.914062 364.269531 272.121094 355.277344 C 277.390625 346.167969 287.203125 342.804688 295.855469 339.835938 C 300.328125 338.304688 305.394531 336.566406 307.332031 334.628906 C 309.265625 332.691406 311.003906 327.628906 312.539062 323.160156 C 315.507812 314.507812 318.871094 304.703125 327.980469 299.433594 C 336.980469 294.226562 347.085938 296.183594 356 297.90625 C 360.707031 298.816406 366.042969 299.847656 368.816406 299.105469 C 371.308594 298.441406 375.253906 294.996094 378.738281 291.960938 C 385.359375 286.1875 393.597656 279 404.328125 279 C 415.058594 279 423.296875 286.1875 429.917969 291.960938 C 433.398438 294.996094 437.347656 298.4375 439.839844 299.105469 C 442.613281 299.84375 447.945312 298.816406 452.652344 297.90625 C 461.570312 296.179688 471.675781 294.226562 480.671875 299.433594 C 489.78125 304.699219 493.148438 314.511719 496.117188 323.160156 C 497.652344 327.628906 499.390625 332.695312 501.324219 334.628906 C 503.261719 336.566406 508.328125 338.304688 512.796875 339.835938 C 521.453125 342.804688 531.265625 346.167969 536.535156 355.273438 C 541.742188 364.269531 539.785156 374.375 538.0625 383.285156 C 537.152344 387.992188 536.121094 393.324219 536.863281 396.097656 C 537.527344 398.585938 540.972656 402.53125 544.011719 406.015625 C 549.785156 412.632812 556.972656 420.871094 556.972656 431.59375 C 556.972656 442.320312 549.785156 450.558594 544.007812 457.175781 C 540.972656 460.65625 537.527344 464.605469 536.863281 467.09375 C 536.121094 469.867188 537.152344 475.199219 538.0625 479.90625 C 539.785156 488.816406 541.742188 498.921875 536.535156 507.917969 C 531.265625 517.023438 521.453125 520.386719 512.800781 523.355469 C 508.328125 524.886719 503.261719 526.625 501.324219 528.5625 C 499.386719 530.496094 497.648438 535.5625 496.117188 540.03125 C 493.148438 548.683594 489.785156 558.488281 480.671875 563.757812 C 471.675781 568.960938 461.570312 567.007812 452.652344 565.285156 C 447.949219 564.375 442.613281 563.347656 439.839844 564.085938 C 437.347656 564.75 433.398438 568.195312 429.917969 571.230469 C 423.296875 577.007812 415.054688 584.191406 404.328125 584.191406 Z M 366.40625 542.1875 C 369.117188 542.164062 371.78125 542.492188 374.40625 543.167969 C 381.753906 545.132812 387.714844 550.328125 392.976562 554.914062 C 396.664062 558.132812 401.714844 562.539062 404.328125 562.539062 C 406.941406 562.539062 411.992188 558.132812 415.679688 554.914062 C 420.941406 550.328125 426.894531 545.132812 434.242188 543.167969 C 441.832031 541.140625 449.761719 542.675781 456.761719 544.027344 C 461.171875 544.878906 467.832031 546.171875 469.824219 545.019531 C 471.921875 543.804688 474.0625 537.5625 475.625 533.003906 C 477.921875 526.3125 480.523438 518.730469 486.003906 513.25 C 491.484375 507.773438 499.070312 505.167969 505.765625 502.875 C 510.324219 501.3125 516.566406 499.171875 517.78125 497.074219 C 518.933594 495.085938 517.644531 488.425781 516.792969 484.019531 C 515.4375 477.019531 513.90625 469.09375 515.929688 461.507812 C 517.894531 454.160156 523.09375 448.203125 527.683594 442.949219 C 530.902344 439.261719 535.308594 434.210938 535.308594 431.601562 C 535.308594 428.988281 530.898438 423.941406 527.683594 420.253906 C 523.09375 414.996094 517.894531 409.039062 515.929688 401.695312 C 513.90625 394.109375 515.4375 386.179688 516.792969 379.183594 C 517.644531 374.777344 518.933594 368.117188 517.78125 366.125 C 516.566406 364.027344 510.324219 361.886719 505.765625 360.328125 C 499.074219 358.03125 491.488281 355.429688 486.003906 349.949219 C 480.523438 344.472656 477.921875 336.886719 475.625 330.195312 C 474.0625 325.640625 471.917969 319.398438 469.824219 318.183594 C 467.835938 317.035156 461.171875 318.320312 456.761719 319.171875 C 449.761719 320.527344 441.828125 322.058594 434.242188 320.035156 C 426.894531 318.070312 420.933594 312.871094 415.679688 308.285156 C 411.992188 305.070312 406.941406 300.664062 404.328125 300.664062 C 401.714844 300.664062 396.664062 305.070312 392.976562 308.285156 C 387.714844 312.871094 381.761719 318.070312 374.410156 320.035156 C 366.824219 322.058594 358.890625 320.527344 351.894531 319.171875 C 347.484375 318.324219 340.820312 317.035156 338.832031 318.183594 C 336.734375 319.398438 334.589844 325.640625 333.027344 330.195312 C 330.734375 336.886719 328.132812 344.46875 322.648438 349.949219 C 317.167969 355.429688 309.582031 358.03125 302.890625 360.328125 C 298.328125 361.890625 292.085938 364.03125 290.871094 366.125 C 289.722656 368.113281 291.011719 374.773438 291.863281 379.183594 C 293.214844 386.179688 294.75 394.109375 292.722656 401.695312 C 290.757812 409.042969 285.558594 415 280.972656 420.257812 C 277.753906 423.945312 273.34375 428.996094 273.34375 431.605469 C 273.34375 434.214844 277.753906 439.265625 280.96875 442.953125 C 285.558594 448.210938 290.757812 454.167969 292.722656 461.515625 C 294.75 469.101562 293.214844 477.027344 291.863281 484.027344 C 291.011719 488.433594 289.722656 495.09375 290.871094 497.082031 C 292.085938 499.179688 298.332031 501.320312 302.890625 502.882812 C 309.582031 505.175781 317.167969 507.777344 322.648438 513.257812 C 328.128906 518.738281 330.734375 526.320312 333.027344 533.011719 C 334.59375 537.570312 336.734375 543.8125 338.832031 545.023438 C 340.816406 546.175781 347.484375 544.886719 351.894531 544.035156 C 356.449219 543.148438 361.40625 542.1875 366.40625 542.1875 Z M 366.40625 542.1875 " fill-opacity="1" fill-rule="nonzero"></path><path fill="#8b1e3f" d="M 404.328125 527.246094 C 402.761719 527.246094 401.195312 527.210938 399.632812 527.132812 C 398.066406 527.054688 396.507812 526.941406 394.949219 526.789062 C 393.390625 526.632812 391.835938 526.441406 390.289062 526.210938 C 388.738281 525.984375 387.195312 525.714844 385.660156 525.410156 C 384.125 525.105469 382.597656 524.761719 381.078125 524.382812 C 379.558594 524 378.050781 523.582031 376.554688 523.128906 C 375.054688 522.675781 373.566406 522.183594 372.09375 521.65625 C 370.621094 521.128906 369.160156 520.566406 367.710938 519.96875 C 366.265625 519.367188 364.835938 518.734375 363.417969 518.066406 C 362.003906 517.394531 360.605469 516.691406 359.222656 515.953125 C 357.84375 515.214844 356.480469 514.445312 355.136719 513.640625 C 353.796875 512.835938 352.472656 511.996094 351.171875 511.128906 C 349.867188 510.257812 348.589844 509.359375 347.332031 508.425781 C 346.074219 507.492188 344.839844 506.53125 343.628906 505.535156 C 342.417969 504.542969 341.234375 503.523438 340.074219 502.46875 C 338.914062 501.417969 337.777344 500.339844 336.671875 499.234375 C 335.5625 498.125 334.484375 496.992188 333.433594 495.832031 C 332.382812 494.671875 331.359375 493.488281 330.367188 492.277344 C 329.371094 491.070312 328.410156 489.835938 327.476562 488.578125 C 326.542969 487.320312 325.644531 486.039062 324.773438 484.738281 C 323.902344 483.4375 323.066406 482.117188 322.261719 480.773438 C 321.457031 479.429688 320.683594 478.070312 319.945312 476.6875 C 319.207031 475.308594 318.503906 473.910156 317.835938 472.496094 C 317.164062 471.078125 316.53125 469.648438 315.929688 468.203125 C 315.332031 466.757812 314.769531 465.296875 314.242188 463.824219 C 313.714844 462.347656 313.222656 460.863281 312.769531 459.367188 C 312.3125 457.867188 311.894531 456.359375 311.515625 454.839844 C 311.132812 453.320312 310.792969 451.796875 310.484375 450.261719 C 310.179688 448.726562 309.914062 447.183594 309.683594 445.632812 C 309.453125 444.085938 309.261719 442.53125 309.109375 440.976562 C 308.953125 439.417969 308.839844 437.855469 308.761719 436.292969 C 308.6875 434.730469 308.648438 433.164062 308.648438 431.601562 C 308.648438 430.035156 308.6875 428.46875 308.761719 426.90625 C 308.839844 425.34375 308.953125 423.78125 309.109375 422.226562 C 309.261719 420.667969 309.453125 419.113281 309.683594 417.566406 C 309.914062 416.015625 310.179688 414.476562 310.484375 412.941406 C 310.792969 411.40625 311.132812 409.878906 311.515625 408.359375 C 311.894531 406.839844 312.3125 405.332031 312.769531 403.835938 C 313.222656 402.335938 313.714844 400.851562 314.242188 399.378906 C 314.769531 397.902344 315.332031 396.445312 315.929688 394.996094 C 316.53125 393.550781 317.164062 392.121094 317.835938 390.707031 C 318.503906 389.289062 319.207031 387.894531 319.945312 386.511719 C 320.683594 385.132812 321.457031 383.769531 322.261719 382.425781 C 323.066406 381.085938 323.902344 379.761719 324.773438 378.460938 C 325.644531 377.160156 326.542969 375.878906 327.476562 374.621094 C 328.410156 373.367188 329.371094 372.132812 330.367188 370.921875 C 331.359375 369.710938 332.382812 368.527344 333.433594 367.367188 C 334.484375 366.207031 335.5625 365.074219 336.671875 363.96875 C 337.777344 362.859375 338.914062 361.78125 340.074219 360.730469 C 341.234375 359.679688 342.417969 358.65625 343.628906 357.664062 C 344.839844 356.671875 346.074219 355.707031 347.332031 354.773438 C 348.589844 353.84375 349.867188 352.941406 351.171875 352.070312 C 352.472656 351.203125 353.796875 350.367188 355.136719 349.5625 C 356.480469 348.753906 357.84375 347.984375 359.222656 347.246094 C 360.605469 346.507812 362.003906 345.804688 363.417969 345.136719 C 364.835938 344.464844 366.265625 343.832031 367.710938 343.234375 C 369.160156 342.632812 370.621094 342.070312 372.09375 341.542969 C 373.566406 341.015625 375.054688 340.527344 376.554688 340.070312 C 378.050781 339.617188 379.558594 339.199219 381.078125 338.820312 C 382.597656 338.4375 384.125 338.097656 385.660156 337.789062 C 387.195312 337.484375 388.738281 337.21875 390.289062 336.988281 C 391.835938 336.757812 393.390625 336.566406 394.949219 336.414062 C 396.507812 336.261719 398.066406 336.144531 399.632812 336.066406 C 401.195312 335.992188 402.761719 335.953125 404.328125 335.953125 C 405.894531 335.953125 407.457031 335.992188 409.023438 336.066406 C 410.585938 336.144531 412.148438 336.261719 413.703125 336.414062 C 415.261719 336.566406 416.816406 336.757812 418.367188 336.988281 C 419.914062 337.21875 421.457031 337.484375 422.992188 337.789062 C 424.527344 338.097656 426.054688 338.4375 427.574219 338.820312 C 429.09375 339.199219 430.601562 339.617188 432.101562 340.070312 C 433.597656 340.527344 435.085938 341.015625 436.558594 341.542969 C 438.035156 342.070312 439.496094 342.632812 440.941406 343.234375 C 442.386719 343.832031 443.820312 344.464844 445.234375 345.136719 C 446.652344 345.804688 448.046875 346.507812 449.429688 347.246094 C 450.8125 347.984375 452.171875 348.753906 453.515625 349.558594 C 454.859375 350.367188 456.179688 351.203125 457.484375 352.070312 C 458.785156 352.941406 460.066406 353.84375 461.324219 354.773438 C 462.582031 355.707031 463.816406 356.671875 465.023438 357.664062 C 466.234375 358.65625 467.421875 359.679688 468.582031 360.730469 C 469.742188 361.78125 470.875 362.859375 471.980469 363.96875 C 473.089844 365.074219 474.167969 366.207031 475.21875 367.367188 C 476.273438 368.527344 477.292969 369.710938 478.289062 370.921875 C 479.28125 372.132812 480.242188 373.367188 481.175781 374.621094 C 482.109375 375.878906 483.011719 377.160156 483.882812 378.460938 C 484.75 379.761719 485.589844 381.085938 486.394531 382.425781 C 487.199219 383.769531 487.96875 385.132812 488.707031 386.511719 C 489.445312 387.894531 490.148438 389.289062 490.820312 390.707031 C 491.488281 392.121094 492.125 393.550781 492.722656 394.996094 C 493.320312 396.445312 493.886719 397.902344 494.414062 399.378906 C 494.941406 400.851562 495.429688 402.335938 495.886719 403.835938 C 496.339844 405.332031 496.757812 406.839844 497.136719 408.359375 C 497.519531 409.878906 497.863281 411.40625 498.167969 412.941406 C 498.472656 414.476562 498.742188 416.015625 498.96875 417.566406 C 499.199219 419.113281 499.390625 420.667969 499.546875 422.226562 C 499.699219 423.78125 499.8125 425.34375 499.890625 426.90625 C 499.96875 428.46875 500.003906 430.035156 500.007812 431.601562 C 500.003906 433.164062 499.964844 434.730469 499.886719 436.292969 C 499.808594 437.855469 499.691406 439.414062 499.535156 440.972656 C 499.378906 442.527344 499.1875 444.082031 498.957031 445.628906 C 498.726562 447.175781 498.457031 448.71875 498.148438 450.253906 C 497.84375 451.785156 497.5 453.3125 497.117188 454.832031 C 496.734375 456.347656 496.316406 457.855469 495.859375 459.351562 C 495.40625 460.851562 494.914062 462.335938 494.386719 463.808594 C 493.855469 465.28125 493.292969 466.742188 492.691406 468.1875 C 492.09375 469.632812 491.457031 471.0625 490.789062 472.476562 C 490.117188 473.890625 489.414062 475.285156 488.675781 476.667969 C 487.9375 478.046875 487.164062 479.40625 486.359375 480.75 C 485.554688 482.089844 484.71875 483.414062 483.847656 484.714844 C 482.976562 486.015625 482.074219 487.292969 481.144531 488.550781 C 480.210938 489.804688 479.246094 491.039062 478.253906 492.25 C 477.261719 493.457031 476.238281 494.644531 475.1875 495.800781 C 474.136719 496.960938 473.058594 498.09375 471.949219 499.199219 C 470.84375 500.308594 469.710938 501.386719 468.550781 502.4375 C 467.390625 503.488281 466.207031 504.511719 464.996094 505.503906 C 463.785156 506.496094 462.550781 507.457031 461.292969 508.390625 C 460.039062 509.324219 458.757812 510.222656 457.457031 511.09375 C 456.15625 511.964844 454.835938 512.800781 453.492188 513.605469 C 452.148438 514.410156 450.789062 515.183594 449.40625 515.921875 C 448.027344 516.660156 446.628906 517.363281 445.214844 518.035156 C 443.800781 518.703125 442.371094 519.335938 440.925781 519.9375 C 439.480469 520.539062 438.019531 521.101562 436.546875 521.628906 C 435.070312 522.15625 433.585938 522.648438 432.089844 523.105469 C 430.589844 523.558594 429.082031 523.976562 427.566406 524.359375 C 426.046875 524.742188 424.519531 525.085938 422.984375 525.390625 C 421.449219 525.699219 419.910156 525.96875 418.359375 526.199219 C 416.8125 526.429688 415.257812 526.621094 413.703125 526.777344 C 412.144531 526.933594 410.582031 527.046875 409.019531 527.128906 C 407.457031 527.207031 405.890625 527.246094 404.328125 527.246094 Z M 404.328125 357.597656 C 403.117188 357.597656 401.90625 357.628906 400.695312 357.6875 C 399.484375 357.746094 398.277344 357.835938 397.070312 357.953125 C 395.867188 358.074219 394.664062 358.21875 393.464844 358.398438 C 392.265625 358.574219 391.074219 358.78125 389.886719 359.019531 C 388.699219 359.253906 387.515625 359.519531 386.339844 359.816406 C 385.164062 360.109375 384 360.433594 382.839844 360.785156 C 381.679688 361.136719 380.53125 361.515625 379.390625 361.921875 C 378.25 362.332031 377.121094 362.765625 376 363.230469 C 374.878906 363.695312 373.773438 364.183594 372.679688 364.703125 C 371.582031 365.21875 370.5 365.765625 369.433594 366.335938 C 368.363281 366.90625 367.3125 367.503906 366.273438 368.125 C 365.234375 368.746094 364.210938 369.394531 363.203125 370.066406 C 362.195312 370.742188 361.207031 371.4375 360.230469 372.160156 C 359.257812 372.882812 358.304688 373.625 357.367188 374.394531 C 356.429688 375.164062 355.515625 375.953125 354.617188 376.765625 C 353.71875 377.578125 352.84375 378.414062 351.984375 379.269531 C 351.128906 380.128906 350.292969 381.003906 349.480469 381.902344 C 348.667969 382.796875 347.875 383.714844 347.105469 384.652344 C 346.339844 385.585938 345.59375 386.542969 344.871094 387.515625 C 344.152344 388.488281 343.453125 389.476562 342.78125 390.484375 C 342.105469 391.492188 341.460938 392.515625 340.835938 393.550781 C 340.214844 394.589844 339.617188 395.644531 339.046875 396.710938 C 338.472656 397.78125 337.929688 398.863281 337.414062 399.957031 C 336.894531 401.050781 336.402344 402.160156 335.941406 403.277344 C 335.476562 404.394531 335.039062 405.527344 334.632812 406.664062 C 334.222656 407.804688 333.84375 408.957031 333.492188 410.113281 C 333.140625 411.273438 332.816406 412.441406 332.523438 413.613281 C 332.230469 414.789062 331.964844 415.972656 331.726562 417.160156 C 331.492188 418.347656 331.285156 419.539062 331.105469 420.738281 C 330.929688 421.933594 330.78125 423.136719 330.660156 424.34375 C 330.542969 425.546875 330.453125 426.753906 330.394531 427.964844 C 330.335938 429.171875 330.304688 430.382812 330.304688 431.59375 C 330.304688 432.804688 330.335938 434.015625 330.394531 435.226562 C 330.453125 436.433594 330.542969 437.644531 330.660156 438.847656 C 330.78125 440.054688 330.929688 441.253906 331.105469 442.453125 C 331.285156 443.648438 331.492188 444.84375 331.726562 446.03125 C 331.964844 447.21875 332.230469 448.398438 332.523438 449.574219 C 332.816406 450.75 333.140625 451.917969 333.492188 453.074219 C 333.84375 454.234375 334.222656 455.382812 334.632812 456.523438 C 335.039062 457.664062 335.476562 458.792969 335.941406 459.914062 C 336.402344 461.03125 336.894531 462.136719 337.410156 463.234375 C 337.929688 464.328125 338.472656 465.410156 339.046875 466.476562 C 339.617188 467.546875 340.214844 468.597656 340.835938 469.636719 C 341.460938 470.675781 342.105469 471.699219 342.78125 472.707031 C 343.453125 473.710938 344.152344 474.703125 344.871094 475.675781 C 345.59375 476.648438 346.339844 477.601562 347.105469 478.539062 C 347.875 479.472656 348.667969 480.390625 349.480469 481.289062 C 350.292969 482.1875 351.128906 483.0625 351.984375 483.917969 C 352.84375 484.773438 353.71875 485.609375 354.617188 486.421875 C 355.515625 487.238281 356.429688 488.027344 357.367188 488.796875 C 358.304688 489.5625 359.257812 490.308594 360.230469 491.03125 C 361.207031 491.75 362.195312 492.449219 363.203125 493.121094 C 364.210938 493.792969 365.234375 494.441406 366.273438 495.0625 C 367.3125 495.6875 368.363281 496.285156 369.433594 496.855469 C 370.5 497.425781 371.582031 497.96875 372.679688 498.488281 C 373.773438 499.003906 374.878906 499.496094 376 499.960938 C 377.121094 500.421875 378.25 500.859375 379.390625 501.265625 C 380.53125 501.675781 381.679688 502.054688 382.839844 502.40625 C 384 502.757812 385.164062 503.082031 386.339844 503.375 C 387.515625 503.667969 388.699219 503.933594 389.886719 504.171875 C 391.074219 504.40625 392.265625 504.613281 393.464844 504.789062 C 394.664062 504.96875 395.867188 505.117188 397.070312 505.234375 C 398.277344 505.355469 399.484375 505.445312 400.695312 505.503906 C 401.90625 505.5625 403.117188 505.59375 404.328125 505.59375 C 405.539062 505.59375 406.75 505.5625 407.957031 505.503906 C 409.167969 505.445312 410.375 505.355469 411.582031 505.234375 C 412.789062 505.117188 413.988281 504.96875 415.1875 504.789062 C 416.386719 504.613281 417.578125 504.40625 418.769531 504.171875 C 419.957031 503.933594 421.136719 503.667969 422.3125 503.375 C 423.488281 503.082031 424.65625 502.757812 425.8125 502.40625 C 426.972656 502.054688 428.125 501.675781 429.265625 501.265625 C 430.40625 500.859375 431.535156 500.421875 432.652344 499.960938 C 433.773438 499.496094 434.878906 499.003906 435.976562 498.488281 C 437.070312 497.96875 438.152344 497.425781 439.21875 496.855469 C 440.289062 496.285156 441.34375 495.6875 442.382812 495.0625 C 443.421875 494.441406 444.445312 493.792969 445.449219 493.121094 C 446.457031 492.449219 447.449219 491.75 448.421875 491.03125 C 449.394531 490.308594 450.347656 489.5625 451.285156 488.796875 C 452.222656 488.027344 453.140625 487.238281 454.035156 486.421875 C 454.933594 485.609375 455.8125 484.773438 456.667969 483.917969 C 457.523438 483.0625 458.359375 482.1875 459.171875 481.289062 C 459.988281 480.390625 460.777344 479.472656 461.546875 478.539062 C 462.316406 477.601562 463.058594 476.648438 463.78125 475.675781 C 464.503906 474.703125 465.199219 473.710938 465.875 472.707031 C 466.546875 471.699219 467.195312 470.675781 467.816406 469.636719 C 468.441406 468.597656 469.035156 467.542969 469.609375 466.476562 C 470.179688 465.410156 470.722656 464.328125 471.242188 463.234375 C 471.757812 462.136719 472.25 461.03125 472.714844 459.914062 C 473.175781 458.792969 473.613281 457.664062 474.023438 456.523438 C 474.429688 455.382812 474.808594 454.234375 475.160156 453.074219 C 475.511719 451.917969 475.835938 450.75 476.128906 449.574219 C 476.425781 448.398438 476.691406 447.21875 476.925781 446.03125 C 477.164062 444.84375 477.371094 443.648438 477.546875 442.453125 C 477.726562 441.253906 477.875 440.054688 477.992188 438.847656 C 478.109375 437.640625 478.199219 436.433594 478.257812 435.226562 C 478.320312 434.015625 478.347656 432.804688 478.347656 431.59375 C 478.347656 430.382812 478.316406 429.175781 478.253906 427.964844 C 478.195312 426.757812 478.105469 425.550781 477.984375 424.34375 C 477.863281 423.140625 477.714844 421.9375 477.535156 420.742188 C 477.355469 419.542969 477.148438 418.351562 476.910156 417.164062 C 476.675781 415.976562 476.410156 414.796875 476.113281 413.621094 C 475.816406 412.449219 475.496094 411.28125 475.140625 410.125 C 474.789062 408.964844 474.410156 407.816406 474 406.675781 C 473.589844 405.539062 473.15625 404.410156 472.691406 403.289062 C 472.226562 402.171875 471.734375 401.066406 471.21875 399.972656 C 470.699219 398.878906 470.152344 397.796875 469.582031 396.730469 C 469.011719 395.664062 468.414062 394.609375 467.792969 393.570312 C 467.167969 392.53125 466.519531 391.511719 465.847656 390.503906 C 465.175781 389.496094 464.476562 388.507812 463.753906 387.535156 C 463.035156 386.5625 462.289062 385.609375 461.519531 384.675781 C 460.75 383.738281 459.960938 382.824219 459.148438 381.925781 C 458.332031 381.027344 457.5 380.152344 456.644531 379.296875 C 455.785156 378.441406 454.910156 377.605469 454.011719 376.792969 C 453.113281 375.980469 452.199219 375.1875 451.261719 374.421875 C 450.328125 373.652344 449.371094 372.90625 448.398438 372.1875 C 447.425781 371.464844 446.4375 370.765625 445.429688 370.09375 C 444.425781 369.421875 443.402344 368.773438 442.363281 368.152344 C 441.324219 367.527344 440.269531 366.929688 439.203125 366.359375 C 438.136719 365.789062 437.054688 365.246094 435.960938 364.726562 C 434.867188 364.207031 433.757812 363.71875 432.640625 363.253906 C 431.523438 362.789062 430.390625 362.351562 429.253906 361.945312 C 428.113281 361.535156 426.964844 361.15625 425.804688 360.804688 C 424.644531 360.449219 423.480469 360.128906 422.304688 359.832031 C 421.128906 359.535156 419.949219 359.269531 418.761719 359.035156 C 417.574219 358.796875 416.382812 358.589844 415.183594 358.410156 C 413.984375 358.230469 412.785156 358.082031 411.578125 357.960938 C 410.375 357.839844 409.167969 357.75 407.957031 357.691406 C 406.75 357.628906 405.539062 357.597656 404.328125 357.597656 Z M 404.328125 357.597656 " fill-opacity="1" fill-rule="nonzero"></path><path fill="#8b1e3f" d="M 327.679688 748.835938 C 326.96875 748.835938 326.265625 748.765625 325.566406 748.625 C 324.871094 748.488281 324.191406 748.28125 323.535156 748.011719 C 322.878906 747.738281 322.253906 747.40625 321.664062 747.011719 C 321.074219 746.613281 320.527344 746.167969 320.023438 745.664062 C 319.519531 745.160156 319.070312 744.613281 318.675781 744.023438 C 318.28125 743.433594 317.949219 742.808594 317.675781 742.152344 C 317.402344 741.496094 317.199219 740.816406 317.058594 740.121094 C 316.921875 739.425781 316.851562 738.71875 316.851562 738.007812 L 316.851562 548.320312 C 316.851562 547.730469 316.898438 547.144531 316.996094 546.5625 C 317.089844 545.980469 317.234375 545.410156 317.421875 544.851562 C 317.609375 544.292969 317.84375 543.753906 318.121094 543.234375 C 318.398438 542.710938 318.714844 542.21875 319.074219 541.75 C 319.433594 541.28125 319.828125 540.84375 320.253906 540.4375 C 320.683594 540.035156 321.144531 539.667969 321.632812 539.339844 C 322.125 539.007812 322.636719 538.722656 323.171875 538.476562 C 323.710938 538.230469 324.261719 538.03125 324.832031 537.875 C 325.398438 537.71875 325.976562 537.613281 326.566406 537.550781 C 327.152344 537.492188 327.738281 537.480469 328.328125 537.515625 C 328.917969 537.550781 329.5 537.632812 330.074219 537.761719 C 330.648438 537.894531 331.210938 538.070312 331.757812 538.292969 C 332.304688 538.511719 332.828125 538.777344 333.332031 539.085938 C 333.835938 539.394531 334.308594 539.742188 334.757812 540.125 C 335.203125 540.511719 335.617188 540.929688 335.992188 541.382812 C 336.371094 541.835938 336.710938 542.316406 337.007812 542.824219 C 337.4375 543.703125 338.039062 544.4375 338.824219 545.019531 C 340.816406 546.171875 347.480469 544.882812 351.890625 544.03125 C 358.890625 542.679688 366.816406 541.144531 374.40625 543.171875 C 381.753906 545.136719 387.714844 550.335938 392.976562 554.917969 C 396.664062 558.136719 401.714844 562.542969 404.328125 562.542969 C 406.941406 562.542969 411.992188 558.136719 415.679688 554.917969 C 420.941406 550.332031 426.894531 545.136719 434.242188 543.171875 C 441.832031 541.144531 449.761719 542.679688 456.761719 544.03125 C 461.171875 544.882812 467.832031 546.171875 469.824219 545.023438 C 470.183594 544.8125 471.171875 544.015625 472.546875 541.105469 C 472.808594 540.554688 473.113281 540.027344 473.464844 539.527344 C 473.816406 539.027344 474.203125 538.558594 474.632812 538.125 C 475.0625 537.691406 475.523438 537.296875 476.019531 536.941406 C 476.515625 536.585938 477.039062 536.273438 477.585938 536.003906 C 478.136719 535.738281 478.703125 535.515625 479.289062 535.34375 C 479.875 535.171875 480.472656 535.050781 481.078125 534.980469 C 481.683594 534.910156 482.292969 534.890625 482.902344 534.921875 C 483.511719 534.953125 484.113281 535.035156 484.710938 535.171875 C 485.304688 535.304688 485.886719 535.488281 486.449219 535.71875 C 487.015625 535.949219 487.554688 536.226562 488.074219 536.550781 C 488.589844 536.875 489.078125 537.238281 489.535156 537.644531 C 489.992188 538.050781 490.410156 538.492188 490.792969 538.96875 C 491.171875 539.445312 491.511719 539.949219 491.808594 540.484375 C 492.105469 541.015625 492.351562 541.570312 492.554688 542.148438 C 492.757812 542.722656 492.910156 543.3125 493.011719 543.914062 C 493.113281 544.515625 493.164062 545.121094 493.164062 545.730469 L 493.164062 738.011719 C 493.167969 739 493.035156 739.96875 492.769531 740.921875 C 492.503906 741.871094 492.113281 742.769531 491.601562 743.613281 C 491.089844 744.460938 490.476562 745.222656 489.753906 745.898438 C 489.035156 746.574219 488.238281 747.140625 487.363281 747.601562 C 486.488281 748.058594 485.566406 748.390625 484.601562 748.597656 C 483.632812 748.804688 482.660156 748.878906 481.671875 748.816406 C 480.6875 748.757812 479.726562 748.5625 478.792969 748.242188 C 477.859375 747.917969 476.984375 747.472656 476.171875 746.914062 L 404.757812 697.488281 L 333.867188 746.890625 C 332.007812 748.1875 329.945312 748.835938 327.679688 748.835938 Z M 404.742188 673.480469 C 407 673.476562 409.054688 674.117188 410.90625 675.402344 L 471.515625 717.347656 L 471.515625 566.835938 C 465.15625 567.703125 458.636719 566.445312 452.652344 565.289062 C 447.945312 564.378906 442.613281 563.347656 439.839844 564.089844 C 437.347656 564.753906 433.398438 568.199219 429.917969 571.234375 C 423.296875 577.007812 415.058594 584.195312 404.328125 584.195312 C 393.597656 584.195312 385.359375 577.007812 378.738281 571.234375 C 375.257812 568.199219 371.308594 564.753906 368.816406 564.089844 C 366.042969 563.347656 360.707031 564.378906 356.003906 565.289062 C 350.449219 566.363281 344.433594 567.523438 338.511719 566.992188 L 338.511719 717.265625 L 398.550781 675.425781 C 400.410156 674.128906 402.472656 673.480469 404.742188 673.480469 Z M 404.742188 673.480469 " fill-opacity="1" fill-rule="nonzero"></path><g fill="#8b1e3f" fill-opacity="1"><g transform="translate(353.781168, 464.695824)"><g><path d="M 3.28125 0 L 3.28125 -10.171875 L 18.296875 -10.171875 L 18.296875 -48.875 L 17.3125 -49.140625 C 15.1875 -48.117188 13.09375 -47.304688 11.03125 -46.703125 C 8.976562 -46.109375 6.632812 -45.644531 4 -45.3125 L 4 -55.8125 C 10.894531 -57.257812 16.46875 -59.390625 20.71875 -62.203125 L 30.453125 -62.203125 L 30.453125 -10.171875 L 43.859375 -10.171875 L 43.859375 0 Z M 3.28125 0 "></path></g></g></g><g fill="#8b1e3f" fill-opacity="1"><g transform="translate(399.682574, 464.695824)"><g><path d="M 29.734375 0.890625 C 25.054688 0.890625 20.878906 -0.1875 17.203125 -2.34375 C 13.535156 -4.5 10.625 -7.921875 8.46875 -12.609375 C 6.3125 -17.304688 5.234375 -23.269531 5.234375 -30.5 C 5.234375 -37.875 6.367188 -43.992188 8.640625 -48.859375 C 10.910156 -53.722656 14.007812 -57.3125 17.9375 -59.625 C 21.863281 -61.9375 26.363281 -63.09375 31.4375 -63.09375 C 35.664062 -63.09375 39.300781 -62.484375 42.34375 -61.265625 C 45.394531 -60.046875 47.769531 -58.242188 49.46875 -55.859375 L 43.4375 -48.109375 L 42.375 -48.109375 C 39.789062 -51.203125 36.144531 -52.75 31.4375 -52.75 C 22.59375 -52.75 18.070312 -46.269531 17.875 -33.3125 L 18.765625 -33.015625 C 20.210938 -35.679688 22.117188 -37.710938 24.484375 -39.109375 C 26.847656 -40.515625 29.832031 -41.21875 33.4375 -41.21875 C 37.289062 -41.21875 40.617188 -40.398438 43.421875 -38.765625 C 46.234375 -37.140625 48.390625 -34.8125 49.890625 -31.78125 C 51.398438 -28.75 52.15625 -25.144531 52.15625 -20.96875 C 52.15625 -16.4375 51.253906 -12.523438 49.453125 -9.234375 C 47.648438 -5.941406 45.0625 -3.429688 41.6875 -1.703125 C 38.3125 0.0234375 34.328125 0.890625 29.734375 0.890625 Z M 29.484375 -9.609375 C 32.679688 -9.609375 35.1875 -10.550781 37 -12.4375 C 38.820312 -14.320312 39.734375 -16.96875 39.734375 -20.375 C 39.734375 -23.78125 38.820312 -26.425781 37 -28.3125 C 35.1875 -30.195312 32.679688 -31.140625 29.484375 -31.140625 C 27.378906 -31.140625 25.539062 -30.695312 23.96875 -29.8125 C 22.394531 -28.9375 21.179688 -27.691406 20.328125 -26.078125 C 19.484375 -24.460938 19.0625 -22.5625 19.0625 -20.375 C 19.0625 -17.0625 19.988281 -14.4375 21.84375 -12.5 C 23.695312 -10.570312 26.242188 -9.609375 29.484375 -9.609375 Z M 29.484375 -9.609375 "></path></g></g></g></svg>