<svg xmlns="http://www.w3.org/2000/svg" xmlns:xlink="http://www.w3.org/1999/xlink" width="70" viewBox="0 0 52.5 52.499999" height="70" preserveAspectRatio="xMidYMid meet"><defs><clipPath id="2bb52df60d"><path d="M 0.453125 0 L 51.71875 0 L 51.71875 52 L 0.453125 52 Z M 0.453125 0 " clip-rule="nonzero"></path></clipPath></defs><g clip-path="url(#2bb52df60d)"><path fill="#2d335b" d="M 16.417969 9.453125 C 16.730469 9.609375 17.105469 9.546875 17.347656 9.300781 C 21.023438 5.546875 27.65625 7.203125 30.53125 8.527344 L 29.683594 9.996094 C 29.535156 10.253906 29.542969 10.578125 29.707031 10.828125 C 29.855469 11.054688 30.109375 11.191406 30.375 11.191406 C 30.402344 11.191406 30.433594 11.1875 30.460938 11.183594 L 38.683594 10.28125 C 38.925781 10.257812 39.140625 10.121094 39.273438 9.910156 C 39.402344 9.703125 39.425781 9.449219 39.34375 9.21875 L 36.359375 1.050781 C 36.253906 0.761719 35.988281 0.558594 35.679688 0.53125 C 35.371094 0.503906 35.074219 0.660156 34.921875 0.925781 L 34.09375 2.359375 C 29.957031 0.226562 25.3125 0.0078125 21.515625 1.804688 C 18.480469 3.242188 16.46875 5.722656 15.992188 8.613281 C 15.9375 8.957031 16.109375 9.296875 16.417969 9.453125 Z M 22.199219 3.246094 C 25.734375 1.570312 30.144531 1.898438 33.996094 4.121094 C 34.179688 4.226562 34.394531 4.257812 34.601562 4.203125 C 34.804688 4.148438 34.976562 4.011719 35.082031 3.832031 L 35.449219 3.199219 L 37.496094 8.808594 L 31.851562 9.429688 L 32.328125 8.601562 C 32.4375 8.417969 32.464844 8.199219 32.410156 7.996094 C 32.355469 7.792969 32.222656 7.617188 32.039062 7.511719 C 30.625 6.695312 27.878906 5.667969 24.777344 5.453125 C 24.398438 5.425781 24.027344 5.414062 23.660156 5.414062 C 21.664062 5.414062 19.890625 5.804688 18.40625 6.574219 C 19.214844 5.199219 20.519531 4.039062 22.199219 3.246094 Z M 50.871094 23.675781 L 48.023438 23.21875 C 47.863281 22.726562 47.667969 22.246094 47.429688 21.789062 L 49.121094 19.449219 C 49.351562 19.132812 49.316406 18.695312 49.039062 18.417969 L 46.839844 16.21875 C 46.5625 15.941406 46.125 15.90625 45.808594 16.136719 L 43.472656 17.832031 C 43.011719 17.59375 42.53125 17.394531 42.039062 17.238281 L 41.582031 14.386719 C 41.523438 14 41.1875 13.714844 40.796875 13.714844 L 37.6875 13.714844 C 37.296875 13.714844 36.960938 14 36.898438 14.386719 L 36.445312 17.238281 C 35.949219 17.394531 35.472656 17.59375 35.011719 17.832031 L 32.671875 16.136719 C 32.355469 15.90625 31.921875 15.941406 31.644531 16.21875 L 29.445312 18.417969 C 29.167969 18.695312 29.132812 19.132812 29.363281 19.449219 L 31.054688 21.789062 C 30.816406 22.246094 30.617188 22.726562 30.460938 23.21875 L 27.613281 23.675781 C 27.226562 23.738281 26.941406 24.070312 26.941406 24.460938 L 26.941406 27.570312 C 26.941406 27.964844 27.226562 28.296875 27.613281 28.359375 L 30.460938 28.816406 C 30.617188 29.308594 30.816406 29.785156 31.054688 30.246094 L 29.363281 32.585938 C 29.132812 32.902344 29.167969 33.339844 29.445312 33.617188 L 31.644531 35.816406 C 31.921875 36.089844 32.355469 36.125 32.671875 35.898438 L 35.011719 34.203125 C 35.472656 34.441406 35.949219 34.640625 36.445312 34.796875 L 36.898438 37.648438 C 36.960938 38.035156 37.296875 38.316406 37.6875 38.316406 L 40.796875 38.316406 C 41.1875 38.316406 41.519531 38.035156 41.582031 37.648438 L 42.039062 34.796875 C 42.53125 34.640625 43.011719 34.441406 43.472656 34.203125 L 45.808594 35.898438 C 46.125 36.125 46.5625 36.089844 46.839844 35.816406 L 49.039062 33.617188 C 49.316406 33.339844 49.351562 32.902344 49.121094 32.585938 L 47.429688 30.246094 C 47.667969 29.785156 47.867188 29.308594 48.023438 28.816406 L 50.871094 28.359375 C 51.257812 28.296875 51.542969 27.964844 51.542969 27.570312 L 51.542969 24.460938 C 51.542969 24.070312 51.257812 23.738281 50.871094 23.675781 Z M 49.949219 26.894531 L 47.269531 27.320312 C 46.957031 27.371094 46.703125 27.605469 46.625 27.910156 C 46.445312 28.609375 46.167969 29.277344 45.800781 29.898438 C 45.640625 30.171875 45.65625 30.515625 45.839844 30.769531 L 47.433594 32.96875 L 46.195312 34.207031 L 43.996094 32.617188 C 43.738281 32.429688 43.394531 32.414062 43.121094 32.578125 C 42.5 32.945312 41.832031 33.222656 41.136719 33.402344 C 40.828125 33.480469 40.597656 33.734375 40.546875 34.046875 L 40.117188 36.726562 L 38.367188 36.726562 L 37.9375 34.046875 C 37.886719 33.734375 37.65625 33.480469 37.347656 33.402344 C 36.652344 33.222656 35.984375 32.945312 35.363281 32.578125 C 35.089844 32.414062 34.746094 32.429688 34.488281 32.617188 L 32.289062 34.207031 L 31.050781 32.96875 L 32.640625 30.769531 C 32.828125 30.515625 32.84375 30.171875 32.683594 29.898438 C 32.3125 29.277344 32.035156 28.609375 31.859375 27.910156 C 31.78125 27.605469 31.527344 27.371094 31.210938 27.320312 L 28.535156 26.894531 L 28.535156 25.140625 L 31.210938 24.710938 C 31.527344 24.664062 31.78125 24.429688 31.859375 24.125 C 32.035156 23.425781 32.3125 22.757812 32.683594 22.136719 C 32.84375 21.863281 32.828125 21.519531 32.640625 21.261719 L 31.050781 19.066406 L 32.289062 17.828125 L 34.488281 19.417969 C 34.746094 19.605469 35.089844 19.621094 35.359375 19.457031 C 35.980469 19.089844 36.652344 18.8125 37.347656 18.632812 C 37.65625 18.554688 37.886719 18.300781 37.9375 17.988281 L 38.367188 15.308594 L 40.117188 15.308594 L 40.546875 17.988281 C 40.597656 18.300781 40.828125 18.554688 41.136719 18.632812 C 41.832031 18.8125 42.5 19.089844 43.121094 19.457031 C 43.394531 19.621094 43.738281 19.605469 43.996094 19.417969 L 46.195312 17.828125 L 47.433594 19.066406 L 45.839844 21.261719 C 45.65625 21.519531 45.640625 21.863281 45.800781 22.136719 C 46.167969 22.757812 46.445312 23.425781 46.625 24.125 C 46.703125 24.429688 46.957031 24.664062 47.269531 24.710938 L 49.949219 25.140625 Z M 39.242188 20.625 C 36.269531 20.625 33.851562 23.042969 33.851562 26.015625 C 33.851562 28.992188 36.269531 31.410156 39.242188 31.410156 C 42.214844 31.410156 44.632812 28.992188 44.632812 26.015625 C 44.632812 23.042969 42.214844 20.625 39.242188 20.625 Z M 39.242188 29.816406 C 37.148438 29.816406 35.441406 28.113281 35.441406 26.015625 C 35.441406 23.921875 37.148438 22.21875 39.242188 22.21875 C 41.335938 22.21875 43.039062 23.921875 43.039062 26.015625 C 43.039062 28.113281 41.335938 29.816406 39.242188 29.816406 Z M 16.605469 36.421875 L 16.605469 35.832031 C 17.292969 35.511719 17.769531 34.820312 17.769531 34.015625 L 17.769531 32.839844 C 17.953125 29.796875 18.707031 28.507812 19.433594 27.265625 C 20.113281 26.101562 20.753906 25.007812 20.753906 22.878906 C 20.753906 18.355469 17.074219 14.675781 12.550781 14.675781 C 8.027344 14.675781 4.34375 18.355469 4.34375 22.878906 C 4.34375 25.007812 4.988281 26.101562 5.664062 27.265625 C 6.394531 28.507812 7.148438 29.796875 7.332031 32.839844 L 7.332031 34.015625 C 7.332031 34.851562 7.84375 35.566406 8.574219 35.867188 L 8.574219 36.421875 C 8.574219 37.253906 9.085938 37.96875 9.808594 38.269531 L 9.808594 38.832031 C 9.808594 39.933594 10.707031 40.832031 11.808594 40.832031 L 13.371094 40.832031 C 14.472656 40.832031 15.371094 39.933594 15.371094 38.832031 L 15.371094 38.269531 C 16.09375 37.96875 16.605469 37.253906 16.605469 36.421875 Z M 14.605469 36.832031 L 10.574219 36.832031 C 10.355469 36.832031 10.167969 36.644531 10.167969 36.421875 L 10.167969 36.015625 L 15.011719 36.015625 L 15.011719 36.421875 C 15.011719 36.644531 14.828125 36.832031 14.605469 36.832031 Z M 9.332031 34.421875 C 9.109375 34.421875 8.921875 34.238281 8.921875 34.015625 L 8.921875 33.609375 L 16.175781 33.609375 L 16.175781 34.015625 C 16.175781 34.238281 15.992188 34.421875 15.769531 34.421875 Z M 10.472656 23.859375 L 9.550781 23.859375 C 9.039062 23.859375 8.625 23.445312 8.625 22.933594 C 8.625 22.421875 9.039062 22.007812 9.550781 22.007812 C 10.058594 22.007812 10.472656 22.421875 10.472656 22.933594 Z M 13.03125 32.015625 L 12.066406 32.015625 L 12.066406 25.453125 L 13.03125 25.453125 Z M 5.9375 22.878906 C 5.9375 19.234375 8.90625 16.265625 12.550781 16.265625 C 16.195312 16.265625 19.160156 19.234375 19.160156 22.878906 C 19.160156 24.574219 18.675781 25.40625 18.058594 26.460938 C 17.367188 27.640625 16.519531 29.089844 16.234375 32.015625 L 14.625 32.015625 L 14.625 25.453125 L 15.550781 25.453125 C 16.9375 25.453125 18.070312 24.320312 18.070312 22.933594 C 18.070312 21.546875 16.9375 20.414062 15.550781 20.414062 C 14.164062 20.414062 13.03125 21.546875 13.03125 22.933594 L 13.03125 23.859375 L 12.066406 23.859375 L 12.066406 22.933594 C 12.066406 21.546875 10.9375 20.414062 9.550781 20.414062 C 8.160156 20.414062 7.03125 21.546875 7.03125 22.933594 C 7.03125 24.320312 8.160156 25.453125 9.550781 25.453125 L 10.472656 25.453125 L 10.472656 32.015625 L 8.863281 32.015625 C 8.578125 29.089844 7.730469 27.640625 7.039062 26.460938 C 6.425781 25.40625 5.9375 24.574219 5.9375 22.878906 Z M 14.625 23.859375 L 14.625 22.933594 C 14.625 22.421875 15.039062 22.007812 15.550781 22.007812 C 16.0625 22.007812 16.476562 22.421875 16.476562 22.933594 C 16.476562 23.445312 16.0625 23.859375 15.550781 23.859375 Z M 13.371094 39.238281 L 11.808594 39.238281 C 11.589844 39.238281 11.402344 39.050781 11.402344 38.832031 L 11.402344 38.425781 L 13.777344 38.425781 L 13.777344 38.832031 C 13.777344 39.050781 13.59375 39.238281 13.371094 39.238281 Z M 11.753906 12.964844 L 11.753906 11.222656 C 11.753906 10.78125 12.109375 10.425781 12.550781 10.425781 C 12.988281 10.425781 13.347656 10.78125 13.347656 11.222656 L 13.347656 12.964844 C 13.347656 13.40625 12.988281 13.761719 12.550781 13.761719 C 12.109375 13.761719 11.753906 13.40625 11.753906 12.964844 Z M 5.398438 13.351562 C 5.179688 12.96875 5.3125 12.484375 5.691406 12.261719 C 6.074219 12.042969 6.558594 12.171875 6.78125 12.554688 L 7.652344 14.066406 C 7.871094 14.445312 7.742188 14.933594 7.359375 15.152344 C 7.234375 15.226562 7.097656 15.261719 6.964844 15.261719 C 6.6875 15.261719 6.421875 15.117188 6.273438 14.863281 Z M 3.5625 18.953125 C 3.414062 19.207031 3.148438 19.351562 2.871094 19.351562 C 2.738281 19.351562 2.597656 19.316406 2.472656 19.242188 L 0.960938 18.371094 C 0.582031 18.152344 0.453125 17.664062 0.671875 17.285156 C 0.890625 16.902344 1.378906 16.773438 1.757812 16.992188 L 3.269531 17.863281 C 3.652344 18.085938 3.78125 18.570312 3.5625 18.953125 Z M 19.40625 12.261719 C 19.789062 12.484375 19.917969 12.96875 19.699219 13.351562 L 18.828125 14.863281 C 18.679688 15.117188 18.410156 15.261719 18.136719 15.261719 C 18 15.261719 17.863281 15.226562 17.738281 15.152344 C 17.359375 14.933594 17.226562 14.445312 17.449219 14.066406 L 18.320312 12.554688 C 18.539062 12.171875 19.027344 12.042969 19.40625 12.261719 Z M 24.429688 17.285156 C 24.648438 17.664062 24.519531 18.152344 24.136719 18.371094 L 22.625 19.242188 C 22.5 19.316406 22.363281 19.351562 22.226562 19.351562 C 21.953125 19.351562 21.683594 19.207031 21.539062 18.953125 C 21.316406 18.570312 21.449219 18.085938 21.828125 17.863281 L 23.339844 16.992188 C 23.722656 16.773438 24.207031 16.902344 24.429688 17.285156 Z M 38.3125 43 C 38.003906 42.84375 37.628906 42.90625 37.382812 43.152344 C 33.953125 46.65625 27.765625 45.136719 25.042969 43.894531 L 25.816406 42.550781 C 25.964844 42.292969 25.957031 41.96875 25.792969 41.71875 C 25.628906 41.464844 25.335938 41.328125 25.039062 41.359375 L 17.285156 42.210938 C 17.039062 42.238281 16.824219 42.375 16.695312 42.585938 C 16.566406 42.792969 16.539062 43.046875 16.621094 43.277344 L 19.4375 50.984375 C 19.542969 51.273438 19.808594 51.476562 20.117188 51.503906 C 20.140625 51.503906 20.164062 51.507812 20.1875 51.507812 C 20.46875 51.507812 20.734375 51.355469 20.875 51.109375 L 21.636719 49.792969 C 25.539062 51.792969 29.921875 51.992188 33.503906 50.296875 C 36.378906 48.9375 38.289062 46.582031 38.738281 43.839844 C 38.796875 43.496094 38.625 43.15625 38.3125 43 Z M 32.820312 48.859375 C 29.5 50.429688 25.351562 50.121094 21.730469 48.03125 C 21.609375 47.960938 21.472656 47.925781 21.332031 47.925781 C 21.265625 47.925781 21.195312 47.933594 21.128906 47.953125 C 20.921875 48.007812 20.75 48.140625 20.644531 48.324219 L 20.347656 48.835938 L 18.46875 43.683594 L 23.652344 43.117188 L 23.242188 43.824219 C 23.023438 44.203125 23.152344 44.691406 23.535156 44.910156 C 24.871094 45.683594 27.472656 46.65625 30.402344 46.859375 C 32.664062 47.015625 34.660156 46.675781 36.300781 45.871094 C 35.539062 47.097656 34.34375 48.136719 32.820312 48.859375 Z M 32.820312 48.859375 " fill-opacity="1" fill-rule="nonzero"></path></g></svg>