<svg xmlns="http://www.w3.org/2000/svg" xmlns:xlink="http://www.w3.org/1999/xlink" width="125" viewBox="0 0 93.75 80.249996" height="107" preserveAspectRatio="xMidYMid meet"><path fill="#2d335b" d="M 79.921875 37.851562 C 78.816406 23.394531 68.285156 11.199219 54.15625 7.992188 C 50.425781 3.847656 43.066406 3.847656 39.332031 7.992188 C 25.207031 11.199219 14.675781 23.394531 13.570312 37.851562 L 12.734375 39.300781 C 11.597656 41.269531 12.101562 43.730469 13.800781 45.132812 C 20.050781 83.046875 73.453125 83.019531 79.691406 45.132812 C 81.390625 43.730469 81.894531 41.269531 80.757812 39.300781 Z M 46.746094 7.136719 C 51.175781 7.136719 54.78125 10.742188 54.78125 15.171875 C 54.375 25.820312 39.113281 25.816406 38.710938 15.171875 C 38.710938 10.742188 42.316406 7.136719 46.746094 7.136719 Z M 37.347656 10.910156 C 34.167969 17.484375 39.398438 25.675781 46.746094 25.503906 C 54.089844 25.675781 59.328125 17.484375 56.144531 10.910156 C 66.074219 14.0625 73.726562 22.09375 76.542969 31.996094 L 72.519531 25.027344 C 71.90625 23.964844 70.914062 23.207031 69.730469 22.890625 C 66.414062 22.007812 61.996094 25.371094 63.082031 29.015625 C 57.472656 33.347656 51.417969 23.695312 40.722656 32.359375 C 37.671875 30.300781 34.046875 29.1875 30.378906 29.144531 C 30.972656 27.1875 30.058594 24.929688 28.265625 23.9375 C 26.941406 23.0625 25.355469 22.398438 23.761719 22.890625 C 22.578125 23.207031 21.585938 23.964844 20.972656 25.027344 L 16.949219 31.996094 C 19.765625 22.09375 27.417969 14.0625 37.347656 10.910156 Z M 52.902344 49.273438 C 52.910156 49.28125 57.265625 53.640625 57.273438 53.644531 C 59.367188 55.816406 56.203125 58.984375 54.03125 56.890625 C 54.03125 56.890625 49.851562 52.714844 49.851562 52.714844 C 49.40625 52.265625 48.679688 52.265625 48.230469 52.714844 C 47.78125 53.164062 47.78125 53.894531 48.230469 54.34375 C 48.242188 54.351562 52.402344 58.519531 52.417969 58.527344 C 54.484375 60.742188 51.359375 63.792969 49.152344 61.761719 C 49.148438 61.753906 47.539062 60.148438 47.535156 60.140625 C 46.878906 59.535156 46.0625 58.253906 45.050781 59.03125 C 47.050781 55.980469 44.464844 51.726562 40.832031 52.117188 C 41.304688 48.15625 36.238281 45.601562 33.308594 48.292969 C 32.574219 44.917969 28.015625 43.652344 25.632812 46.175781 C 25.632812 46.175781 22.121094 49.6875 22.121094 49.6875 C 21.050781 48.9375 20.023438 47.378906 19.695312 46.328125 C 20.535156 45.933594 21.234375 45.300781 21.707031 44.480469 L 29.210938 31.484375 C 32.613281 31.285156 36.039062 32.128906 38.9375 33.925781 C 38.210938 34.613281 37.472656 35.359375 36.703125 36.222656 C 36.472656 36.480469 36.371094 36.832031 36.429688 37.171875 C 37.078125 40.914062 40.636719 44.371094 46.113281 41.453125 C 51.699219 38.660156 54.453125 41.578125 60.160156 48.445312 C 60.96875 49.472656 61.042969 49.609375 62.738281 49.917969 C 63.289062 52.089844 60.472656 53.621094 58.902344 52.027344 C 58.902344 52.027344 54.527344 47.652344 54.527344 47.652344 C 53.464844 46.597656 51.84375 48.207031 52.902344 49.273438 Z M 28.15625 56.636719 C 29.683594 55.113281 33.09375 51.703125 34.652344 50.144531 C 36.859375 48.105469 39.988281 51.183594 37.898438 53.390625 C 37.898438 53.390625 31.40625 59.886719 31.40625 59.886719 C 29.234375 61.980469 26.058594 58.8125 28.15625 56.636719 Z M 26.710938 54.839844 C 24.539062 56.921875 21.371094 53.757812 23.46875 51.585938 C 23.46875 51.585938 27.253906 47.800781 27.253906 47.800781 C 27.703125 47.351562 28.292969 47.128906 28.878906 47.128906 C 30.84375 47.058594 31.964844 49.683594 30.503906 51.046875 C 29.632812 51.921875 27.601562 53.945312 26.710938 54.839844 Z M 33.027344 61.507812 L 39.523438 55.015625 C 41.6875 52.914062 44.871094 56.09375 42.769531 58.261719 C 41.292969 59.738281 37.710938 63.320312 36.277344 64.753906 C 34.109375 66.847656 30.929688 63.683594 33.027344 61.507812 Z M 44.390625 59.882812 C 44.480469 59.792969 44.550781 59.6875 44.632812 59.589844 C 44.265625 60.476562 45.425781 61.214844 45.917969 61.769531 C 47.988281 63.984375 44.871094 67.035156 42.667969 65.007812 C 42.667969 65.007812 40.96875 63.308594 40.96875 63.308594 Z M 62.34375 47.480469 C 56.90625 40.921875 52.6875 35.492188 45.085938 39.402344 C 41.953125 41.105469 39.570312 40.074219 38.824219 37.300781 C 50.886719 24.023438 55.691406 36.359375 64.078125 31.128906 L 71.621094 44.199219 L 71.808594 44.710938 C 67.488281 48.648438 63.390625 47.792969 62.34375 47.480469 Z M 14.722656 40.449219 L 22.960938 26.175781 C 23.558594 25.09375 25.039062 24.695312 26.097656 25.335938 C 26.902344 25.796875 27.996094 26.304688 28.1875 27.320312 C 28.347656 27.910156 28.265625 28.527344 27.957031 29.0625 L 19.71875 43.332031 C 19.414062 43.863281 18.917969 44.246094 18.324219 44.402344 C 17.355469 44.738281 16.359375 44.058594 15.5625 43.585938 C 14.464844 42.953125 14.089844 41.542969 14.722656 40.449219 Z M 46.746094 71.421875 C 31.921875 71.421875 19.246094 60.882812 16.375 46.566406 C 16.710938 46.671875 17.058594 46.734375 17.40625 46.757812 C 17.820312 48.25 19.207031 50.476562 20.816406 51.554688 C 19.554688 54.40625 22.09375 58.066406 25.238281 57.785156 C 24.824219 60.445312 27.394531 63.179688 30.09375 62.820312 C 29.6875 66.929688 35.011719 69.390625 37.898438 66.378906 C 37.898438 66.378906 39.34375 64.933594 39.34375 64.933594 L 41.042969 66.632812 C 43.464844 69.25 48.253906 67.75 48.792969 64.261719 C 51.800781 65.886719 55.730469 63.171875 55.34375 59.828125 C 57.96875 60.175781 60.511719 57.570312 60.210938 54.964844 C 62.925781 55.289062 65.375 52.695312 65.082031 50.050781 C 67.386719 49.957031 70.457031 49.113281 73.554688 46.199219 C 74.621094 46.808594 75.949219 46.945312 77.117188 46.566406 C 74.246094 60.882812 61.570312 71.421875 46.746094 71.421875 Z M 77.929688 43.585938 L 76.910156 44.171875 C 75.851562 44.8125 74.367188 44.414062 73.773438 43.332031 C 73.773438 43.332031 65.53125 29.0625 65.53125 29.0625 C 64.894531 28.003906 65.292969 26.519531 66.371094 25.925781 L 67.394531 25.335938 C 68.453125 24.695312 69.933594 25.09375 70.53125 26.175781 L 78.769531 40.449219 C 79.402344 41.542969 79.027344 42.953125 77.929688 43.585938 Z M 77.929688 43.585938 " fill-opacity="1" fill-rule="nonzero"></path><path fill="#2d335b" d="M 75.445312 39.28125 C 73.9375 39.308594 73.9375 41.546875 75.445312 41.574219 C 76.953125 41.546875 76.953125 39.308594 75.445312 39.28125 Z M 75.445312 39.28125 " fill-opacity="1" fill-rule="nonzero"></path><path fill="#2d335b" d="M 18.046875 39.28125 C 16.539062 39.308594 16.539062 41.546875 18.046875 41.574219 C 19.554688 41.546875 19.554688 39.308594 18.046875 39.28125 Z M 18.046875 39.28125 " fill-opacity="1" fill-rule="nonzero"></path><path fill="#2d335b" d="M 44.785156 18.28125 C 45.234375 18.730469 45.960938 18.730469 46.410156 18.28125 L 52.148438 12.542969 C 53.203125 11.476562 51.59375 9.859375 50.527344 10.917969 C 50.527344 10.917969 45.597656 15.847656 45.597656 15.847656 L 42.964844 13.214844 C 41.898438 12.15625 40.285156 13.769531 41.34375 14.835938 C 41.34375 14.835938 44.785156 18.28125 44.785156 18.28125 Z M 44.785156 18.28125 " fill-opacity="1" fill-rule="nonzero"></path></svg>