<svg xmlns="http://www.w3.org/2000/svg" xmlns:xlink="http://www.w3.org/1999/xlink" width="125" viewBox="0 0 93.75 80.249996" height="107" preserveAspectRatio="xMidYMid meet"><defs><clipPath id="ec54822547"><path d="M 7.585938 0.160156 L 85.609375 0.160156 L 85.609375 79.507812 L 7.585938 79.507812 Z M 7.585938 0.160156 " clip-rule="nonzero"></path></clipPath></defs><g clip-path="url(#ec54822547)"><path fill="#2d335b" d="M 85.082031 32.496094 L 79.523438 30.355469 C 78.753906 27.386719 77.574219 24.546875 76.015625 21.898438 L 78.4375 16.453125 C 78.652344 15.96875 78.546875 15.40625 78.171875 15.03125 L 71.035156 7.894531 C 70.660156 7.523438 70.097656 7.417969 69.613281 7.628906 L 64.167969 10.050781 C 61.515625 8.492188 58.679688 7.316406 55.710938 6.546875 L 53.570312 0.984375 C 53.382812 0.492188 52.90625 0.167969 52.378906 0.167969 L 42.285156 0.167969 C 41.757812 0.167969 41.285156 0.492188 41.09375 0.984375 L 38.953125 6.546875 C 35.988281 7.316406 33.148438 8.492188 30.5 10.050781 L 25.050781 7.628906 C 24.570312 7.417969 24.003906 7.519531 23.628906 7.894531 L 16.492188 15.03125 C 16.121094 15.40625 16.015625 15.96875 16.230469 16.453125 L 18.648438 21.902344 C 17.089844 24.550781 15.914062 27.386719 15.144531 30.355469 L 9.585938 32.496094 C 9.09375 32.6875 8.765625 33.160156 8.765625 33.6875 L 8.765625 43.78125 C 8.765625 44.308594 9.09375 44.78125 9.585938 44.972656 L 15.144531 47.113281 C 15.535156 48.617188 16.035156 50.097656 16.632812 51.535156 C 11.332031 53.667969 7.582031 58.863281 7.582031 64.917969 C 7.582031 72.867188 14.050781 79.335938 22 79.335938 C 28.226562 79.335938 33.539062 75.375 35.554688 69.839844 C 36.667969 70.261719 37.804688 70.625 38.953125 70.921875 L 41.09375 76.484375 C 41.285156 76.976562 41.757812 77.300781 42.285156 77.300781 L 52.378906 77.300781 C 52.90625 77.300781 53.382812 76.976562 53.570312 76.484375 L 55.710938 70.925781 C 58.679688 70.152344 61.519531 68.976562 64.167969 67.417969 L 69.613281 69.835938 C 70.097656 70.050781 70.660156 69.949219 71.035156 69.574219 L 78.171875 62.4375 C 78.546875 62.0625 78.652344 61.5 78.4375 61.015625 L 76.015625 55.566406 C 77.574219 52.917969 78.75 50.078125 79.523438 47.113281 L 85.082031 44.972656 C 85.574219 44.78125 85.898438 44.308594 85.898438 43.78125 L 85.898438 33.6875 C 85.898438 33.160156 85.574219 32.6875 85.082031 32.496094 Z M 22 76.78125 C 15.460938 76.78125 10.136719 71.460938 10.136719 64.917969 C 10.136719 58.375 15.460938 53.050781 22 53.050781 C 28.542969 53.050781 33.867188 58.375 33.867188 64.917969 C 33.867188 71.460938 28.542969 76.78125 22 76.78125 Z M 28.601562 52.097656 C 25.804688 48.183594 24.320312 43.570312 24.320312 38.734375 C 24.320312 26.046875 34.644531 15.722656 47.332031 15.722656 C 60.023438 15.722656 70.34375 26.046875 70.34375 38.734375 C 70.34375 51.421875 60.023438 61.746094 47.332031 61.746094 C 42.769531 61.746094 38.371094 60.414062 34.59375 57.898438 C 33.210938 55.425781 31.121094 53.402344 28.601562 52.097656 Z M 83.347656 42.902344 L 77.984375 44.96875 C 77.589844 45.117188 77.296875 45.453125 77.203125 45.863281 C 76.449219 49.023438 75.203125 52.035156 73.492188 54.808594 C 73.273438 55.167969 73.242188 55.613281 73.414062 55.996094 L 75.746094 61.25 L 69.851562 67.148438 L 64.597656 64.816406 C 64.210938 64.644531 63.769531 64.671875 63.410156 64.894531 C 60.636719 66.601562 57.625 67.851562 54.460938 68.601562 C 54.054688 68.699219 53.71875 68.992188 53.566406 69.386719 L 51.503906 74.746094 L 43.164062 74.746094 L 41.101562 69.386719 C 40.949219 68.992188 40.613281 68.699219 40.203125 68.601562 C 38.851562 68.28125 37.515625 67.859375 36.214844 67.355469 C 36.351562 66.5625 36.421875 65.75 36.421875 64.917969 C 36.421875 63.804688 36.296875 62.722656 36.054688 61.683594 C 39.542969 63.402344 43.382812 64.300781 47.332031 64.300781 C 61.429688 64.300781 72.898438 52.832031 72.898438 38.734375 C 72.898438 24.636719 61.429688 13.167969 47.332031 13.167969 C 33.238281 13.167969 21.769531 24.636719 21.769531 38.734375 C 21.769531 42.984375 22.796875 47.082031 24.765625 50.765625 C 23.871094 50.589844 22.949219 50.496094 22.003906 50.496094 C 21.007812 50.496094 20.035156 50.597656 19.09375 50.792969 C 18.414062 49.199219 17.863281 47.546875 17.464844 45.863281 C 17.367188 45.453125 17.074219 45.117188 16.679688 44.96875 L 11.320312 42.902344 L 11.320312 34.5625 L 16.679688 32.5 C 17.074219 32.351562 17.367188 32.015625 17.464844 31.605469 C 18.21875 28.441406 19.464844 25.433594 21.171875 22.660156 C 21.394531 22.300781 21.425781 21.855469 21.253906 21.472656 L 18.917969 16.21875 L 24.816406 10.320312 L 30.070312 12.65625 C 30.457031 12.824219 30.898438 12.796875 31.257812 12.574219 C 34.035156 10.867188 37.042969 9.617188 40.203125 8.867188 C 40.613281 8.769531 40.949219 8.476562 41.097656 8.082031 L 43.164062 2.722656 L 51.503906 2.722656 L 53.566406 8.082031 C 53.71875 8.476562 54.054688 8.769531 54.460938 8.867188 C 57.625 9.617188 60.632812 10.867188 63.40625 12.574219 C 63.765625 12.796875 64.210938 12.824219 64.59375 12.65625 L 69.847656 10.320312 L 75.746094 16.21875 L 73.414062 21.46875 C 73.242188 21.855469 73.273438 22.300781 73.492188 22.65625 C 75.203125 25.433594 76.449219 28.441406 77.203125 31.605469 C 77.300781 32.015625 77.59375 32.351562 77.984375 32.5 L 83.34375 34.5625 L 83.34375 42.902344 Z M 23.742188 56.421875 C 23.507812 55.753906 22.898438 55.3125 22.191406 55.292969 C 22.175781 55.292969 22.164062 55.292969 22.148438 55.292969 C 21.457031 55.292969 20.847656 55.703125 20.585938 56.34375 L 18.691406 60.980469 L 13.6875 61.101562 C 12.980469 61.117188 12.371094 61.558594 12.136719 62.226562 C 11.898438 62.898438 12.097656 63.625 12.636719 64.078125 L 16.460938 67.3125 L 15.027344 72.113281 C 14.824219 72.789062 15.058594 73.507812 15.621094 73.9375 C 16.179688 74.367188 16.933594 74.402344 17.535156 74.03125 L 21.792969 71.394531 L 25.914062 74.238281 C 26.207031 74.441406 26.539062 74.542969 26.875 74.542969 C 27.207031 74.542969 27.542969 74.441406 27.832031 74.238281 C 28.414062 73.835938 28.683594 73.132812 28.515625 72.445312 L 27.320312 67.582031 L 31.300781 64.542969 C 31.863281 64.113281 32.097656 63.398438 31.894531 62.71875 C 31.691406 62.039062 31.105469 61.566406 30.398438 61.515625 L 25.40625 61.148438 Z M 25.320312 65.898438 C 24.785156 66.304688 24.546875 66.988281 24.707031 67.640625 L 25.492188 70.84375 L 22.777344 68.96875 C 22.488281 68.769531 22.15625 68.671875 21.820312 68.671875 C 21.511719 68.671875 21.203125 68.753906 20.929688 68.921875 L 18.125 70.660156 L 19.070312 67.5 C 19.261719 66.859375 19.054688 66.160156 18.542969 65.726562 L 16.023438 63.597656 L 19.320312 63.519531 C 19.992188 63.503906 20.589844 63.09375 20.84375 62.46875 L 22.089844 59.417969 L 23.183594 62.527344 C 23.40625 63.164062 23.984375 63.605469 24.652344 63.652344 L 27.941406 63.894531 Z M 63.78125 52.78125 C 64.023438 52.511719 64.140625 52.152344 64.101562 51.789062 C 63.378906 45.050781 58.773438 39.609375 52.644531 37.589844 C 54.96875 35.925781 56.492188 33.207031 56.492188 30.136719 C 56.492188 25.085938 52.382812 20.976562 47.332031 20.976562 C 42.285156 20.976562 38.175781 25.085938 38.175781 30.136719 C 38.175781 33.207031 39.695312 35.925781 42.023438 37.589844 C 35.890625 39.609375 31.285156 45.050781 30.566406 51.789062 C 30.527344 52.152344 30.644531 52.511719 30.886719 52.78125 C 31.128906 53.050781 31.472656 53.203125 31.835938 53.203125 L 62.832031 53.203125 C 63.191406 53.203125 63.539062 53.050781 63.78125 52.78125 Z M 49.707031 46.191406 L 47.332031 48.871094 L 44.960938 46.191406 L 47.152344 39.296875 C 47.214844 39.296875 47.273438 39.292969 47.332031 39.292969 C 47.394531 39.292969 47.453125 39.296875 47.511719 39.296875 Z M 40.730469 30.136719 C 40.730469 26.492188 43.691406 23.53125 47.332031 23.53125 C 50.976562 23.53125 53.9375 26.492188 53.9375 30.136719 C 53.9375 33.777344 50.976562 36.738281 47.332031 36.738281 C 43.691406 36.738281 40.730469 33.777344 40.730469 30.136719 Z M 44.378906 39.601562 L 42.308594 46.109375 C 42.171875 46.539062 42.269531 47.007812 42.566406 47.34375 L 45.496094 50.648438 L 33.328125 50.648438 C 34.492188 45.054688 38.871094 40.75 44.378906 39.601562 Z M 49.167969 50.648438 L 52.097656 47.34375 C 52.394531 47.007812 52.496094 46.539062 52.359375 46.109375 L 50.289062 39.601562 C 55.796875 40.75 60.175781 45.054688 61.339844 50.648438 Z M 49.167969 50.648438 " fill-opacity="1" fill-rule="nonzero"></path></g></svg>