<svg xmlns="http://www.w3.org/2000/svg" xmlns:xlink="http://www.w3.org/1999/xlink" width="40" viewBox="0 0 30 30.000001" height="40" preserveAspectRatio="xMidYMid meet"><defs><clipPath id="424927af21"><path d="M 2.371094 1.886719 L 29.226562 1.886719 L 29.226562 28.742188 L 2.371094 28.742188 Z M 2.371094 1.886719 " clip-rule="nonzero"></path></clipPath></defs><path fill="#23395b" d="M 9.609375 9.125 L 15.035156 9.125 L 15.039062 11.835938 L 9.609375 11.835938 Z M 9.609375 12.742188 L 15.035156 12.742188 C 15.535156 12.742188 15.941406 12.335938 15.941406 11.835938 L 15.941406 9.125 C 15.941406 8.625 15.535156 8.21875 15.035156 8.21875 L 9.609375 8.21875 C 9.109375 8.21875 8.703125 8.625 8.703125 9.125 L 8.703125 11.835938 C 8.703125 12.335938 9.109375 12.742188 9.609375 12.742188 " fill-opacity="1" fill-rule="nonzero"></path><path fill="#23395b" d="M 14.582031 13.648438 L 9.609375 13.648438 C 9.359375 13.648438 9.15625 13.851562 9.15625 14.097656 C 9.15625 14.347656 9.359375 14.550781 9.609375 14.550781 L 14.582031 14.550781 C 14.832031 14.550781 15.035156 14.347656 15.035156 14.097656 C 15.035156 13.851562 14.832031 13.648438 14.582031 13.648438 " fill-opacity="1" fill-rule="nonzero"></path><path fill="#23395b" d="M 12.773438 15.457031 L 9.609375 15.457031 C 9.359375 15.457031 9.15625 15.660156 9.15625 15.910156 C 9.15625 16.15625 9.359375 16.359375 9.609375 16.359375 L 12.773438 16.359375 C 13.023438 16.359375 13.226562 16.15625 13.226562 15.910156 C 13.226562 15.660156 13.023438 15.457031 12.773438 15.457031 " fill-opacity="1" fill-rule="nonzero"></path><path fill="#23395b" d="M 20.914062 15.910156 C 21.164062 15.910156 21.367188 15.707031 21.367188 15.457031 L 21.367188 15.003906 C 21.367188 14.753906 21.164062 14.550781 20.914062 14.550781 C 20.667969 14.550781 20.464844 14.753906 20.464844 15.003906 L 20.464844 15.457031 C 20.464844 15.707031 20.667969 15.910156 20.914062 15.910156 " fill-opacity="1" fill-rule="nonzero"></path><path fill="#23395b" d="M 22.726562 21.789062 C 22.972656 21.789062 23.175781 21.585938 23.175781 21.335938 C 23.175781 21.085938 22.972656 20.882812 22.726562 20.882812 C 21.976562 20.882812 21.367188 20.277344 21.367188 19.527344 L 21.367188 17.265625 C 21.367188 17.015625 21.164062 16.8125 20.914062 16.8125 C 20.667969 16.8125 20.464844 17.015625 20.464844 17.265625 L 20.464844 19.527344 C 20.464844 20.773438 21.476562 21.789062 22.726562 21.789062 " fill-opacity="1" fill-rule="nonzero"></path><g clip-path="url(#424927af21)"><path fill="#23395b" d="M 26.882812 19.160156 C 26.855469 19.191406 26.824219 19.214844 26.796875 19.242188 L 26.796875 15.003906 L 28.605469 15.003906 C 28.605469 16.570312 27.992188 18.046875 26.882812 19.160156 Z M 25.890625 19.527344 C 25.890625 21.273438 24.46875 22.691406 22.726562 22.691406 C 20.980469 22.691406 19.558594 21.273438 19.558594 19.527344 L 19.558594 13.648438 L 25.890625 13.648438 Z M 23.628906 25.40625 L 21.820312 25.40625 L 21.820312 23.492188 C 22.113281 23.558594 22.414062 23.597656 22.726562 23.597656 C 23.035156 23.597656 23.335938 23.558594 23.628906 23.492188 Z M 25.890625 27.667969 L 25.894531 28.121094 L 19.558594 28.121094 L 19.558594 27.667969 C 19.558594 26.917969 20.167969 26.3125 20.914062 26.3125 L 24.535156 26.3125 C 25.28125 26.3125 25.890625 26.917969 25.890625 27.667969 Z M 3.277344 18.0625 L 3.277344 3.242188 C 3.277344 2.996094 3.480469 2.792969 3.726562 2.792969 L 10.136719 2.792969 C 10.257812 2.792969 10.371094 2.839844 10.457031 2.925781 L 11.734375 4.203125 C 11.992188 4.460938 12.335938 4.601562 12.699219 4.601562 L 18.203125 4.601562 C 18.449219 4.601562 18.652344 4.804688 18.652344 5.054688 L 18.652344 6.410156 L 8.25 6.410156 C 7.5 6.410156 6.894531 7.019531 6.894531 7.765625 L 6.894531 18.171875 C 6.894531 18.652344 6.703125 19.109375 6.367188 19.449219 C 6.039062 19.773438 5.609375 19.960938 5.148438 19.976562 C 4.683594 19.988281 4.234375 19.816406 3.878906 19.472656 C 3.496094 19.105469 3.277344 18.589844 3.277344 18.0625 Z M 18.566406 19.164062 C 17.457031 18.046875 16.84375 16.570312 16.84375 15.003906 L 18.652344 15.003906 L 18.652344 19.242188 C 18.625 19.214844 18.59375 19.191406 18.566406 19.164062 Z M 22.726562 7.316406 C 22.972656 7.316406 23.175781 7.519531 23.175781 7.765625 L 23.175781 12.742188 L 19.558594 12.742188 C 19.058594 12.742188 18.652344 13.148438 18.652344 13.648438 L 18.652344 14.097656 L 16.84375 14.097656 C 16.347656 14.097656 15.941406 14.503906 15.941406 15.003906 C 15.941406 16.8125 16.644531 18.515625 17.929688 19.800781 C 17.988281 19.863281 18.058594 19.917969 18.125 19.980469 L 7.105469 19.980469 C 7.554688 19.480469 7.796875 18.84375 7.796875 18.171875 L 7.796875 7.765625 C 7.796875 7.519531 8 7.316406 8.25 7.316406 Z M 28.605469 14.097656 L 26.796875 14.097656 L 26.796875 13.648438 C 26.796875 13.148438 26.390625 12.742188 25.890625 12.742188 L 24.082031 12.742188 L 24.082031 7.765625 C 24.082031 7.019531 23.472656 6.410156 22.726562 6.410156 L 19.558594 6.410156 L 19.558594 5.054688 C 19.558594 4.304688 18.949219 3.695312 18.203125 3.695312 L 12.699219 3.695312 C 12.574219 3.695312 12.460938 3.648438 12.375 3.5625 L 11.097656 2.285156 C 10.839844 2.027344 10.5 1.886719 10.136719 1.886719 L 3.726562 1.886719 C 2.980469 1.886719 2.371094 2.496094 2.371094 3.242188 L 2.371094 18.0625 C 2.371094 18.832031 2.691406 19.585938 3.253906 20.125 C 3.757812 20.617188 4.40625 20.882812 5.085938 20.882812 L 18.890625 20.882812 C 19.246094 21.882812 19.976562 22.699219 20.914062 23.167969 L 20.914062 25.40625 C 19.667969 25.40625 18.652344 26.421875 18.652344 27.667969 L 18.652344 28.121094 C 18.652344 28.617188 19.058594 29.027344 19.558594 29.027344 L 25.890625 29.027344 C 26.390625 29.027344 26.796875 28.617188 26.796875 28.121094 L 26.796875 27.667969 C 26.796875 26.421875 25.78125 25.40625 24.535156 25.40625 L 24.535156 23.167969 C 25.585938 22.644531 26.378906 21.675781 26.671875 20.511719 C 26.976562 20.292969 27.265625 20.058594 27.523438 19.800781 C 28.804688 18.515625 29.507812 16.8125 29.507812 15.003906 C 29.507812 14.503906 29.101562 14.097656 28.605469 14.097656 " fill-opacity="1" fill-rule="nonzero"></path></g></svg>