<svg xmlns="http://www.w3.org/2000/svg" width="108.13999938964844" height="32" viewBox="0 0 108.14 32" class="black-logo-svg"><path d="m104.48 16.809c-0.4615 0.40717-1.0178 0.76011-1.6692 1.0586-0.65113 0.29843-1.3364 0.58367-2.0558 0.85488-0.719 0.27127-1.452 0.54266-2.1981 0.81403-2.4089 0.87583-6.2619 3.2787-4.4171 6.4157 0.40714 0.69204 0.99745 1.1536 1.7709 1.3841 0.77355 0.23079 1.6556 0.27136 2.6462 0.12224 0.99056-0.14931 1.92-0.4478 2.7885-0.8957 0.86832-0.44783 1.6012-1.0041 2.1983-1.6689 0.59693-0.665 0.90914-1.3775 0.93637-2.1374zm-9.7288-8.3478c0.49264-0.00646 1.0352-0.017775 1.6276-0.034209 0.97693-0.02713 1.9947-0.020425 3.053 0.020425 1.0586 0.04057 2.1035 0.13559 3.1347 0.2849 1.0315 0.14912 1.9608 0.40025 2.7886 0.75313 0.82774 0.35278 1.4995 0.83445 2.0151 1.4452 0.5157 0.61061 0.77365 1.3908 0.77365 2.3407v16.65l-2.6055-2.5238c-0.43431 0.73264-1.1805 1.3229-2.239 1.7707-1.0584 0.4478-2.2254 0.72609-3.501 0.83455-1.2756 0.10855-2.5783 0.04756-3.908-0.18308-1.3299-0.2307-2.4902-0.6718-3.4808-1.3231-0.99056-0.65128-1.7166-1.513-2.178-2.585-0.46118-1.072-0.46118-2.3816 0-3.9284 0.27155-0.92283 0.70582-1.6692 1.3029-2.239 0.59696-0.56998 1.2823-1.0584 2.0557-1.4656 0.77346-0.40695 1.6014-0.75974 2.4834-1.0584 0.882-0.29859 1.7571-0.62415 2.6258-0.97693 1.6826-0.70566 2.8835-1.2959 3.6027-1.7709 0.71936-0.47487 1.0924-0.86832 1.1194-1.1804 0.0271-0.31221-0.22393-0.54965-0.75306-0.7124-0.52904-0.16281-1.2009-0.27816-2.015-0.34605-0.81431-0.06789-1.7167-0.10185-2.7073-0.10185h-5.0275c-0.43146 0-0.74006-0.01387-0.92507-0.03898l0.66943-0.88138 0.67763-0.89227z"></path><path d="m84.655 8.6303c0.6514 0.054198 1.2551 0.27139 1.8115 0.6514 0.55636 0.37991 1.0178 0.86168 1.3842 1.4451 0.36641 0.58361 0.62418 1.2011 0.77339 1.8524 0.14937 0.65122 0.16281 1.2687 0.04067 1.8522-0.12199 0.58348-0.41378 1.0789-0.87512 1.4858-0.46143 0.40717-1.1128 0.63787-1.9541 0.69207-0.48847 0.02723-0.92277-0.0542-1.3027-0.24423-0.38001-0.18997-0.69877-0.44783-0.9567-0.77339-0.25777-0.32566-0.44094-0.69893-0.54956-1.1195-0.10855-0.42074-0.10855-0.84805 0-1.2824-0.37995 0.08152-0.82104 0.25116-1.323 0.50889-0.50206 0.25795-1.0381 0.55638-1.6081 0.89564-0.56986 0.33919-1.1397 0.69886-1.7096 1.0789-0.56998 0.37992-1.0992 0.7327-1.5878 1.0584v13.19l-3.6638-3.5418v-14.289h-4.7934l2.0357-3.6231h6.4216v6.0249c0.59702-0.70566 1.2146-1.418 1.8523-2.1372 0.63778-0.7191 1.2145-1.3094 1.7301-1.7709 0.2172-0.18988 0.48856-0.40015 0.81421-0.63098 0.32575-0.23061 0.67853-0.44771 1.0585-0.65128 0.37985-0.20351 0.77339-0.37321 1.1804-0.50883 0.40714-0.13578 0.81422-0.19013 1.2214-0.16291"></path><path d="m67.472 25.28c0.02704 0.70566-0.10175 1.3774-0.38671 2.0152-0.28499 0.63778-0.67174 1.1805-1.1602 1.6283-0.48847 0.4478-1.0652 0.75992-1.7302 0.93636-0.66491 0.17644-1.3502 0.15611-2.0558-0.06109-0.62424-0.21717-1.201-0.53602-1.7302-0.9567-0.52913-0.42058-1.0245-0.86168-1.4858-1.323-0.35278-0.35278-0.68533-0.71237-0.99736-1.0788-0.31215-0.36641-0.61744-0.75322-0.91606-1.1603-0.73261-0.97693-1.0856-1.9811-1.0584-3.0125v-10.218l-4.0444 0.03112 2.0356-3.5825 2.0088-0.031028v-8.4675l3.6639 3.5009v4.9666h6.4037l-2.076 3.5824h-4.3277l-0.04075 13.76c0.05419 0.43439 0.31206 0.665 0.7734 0.69216 0.40714 0.02704 0.78026-0.06109 1.1195-0.26466 0.33938-0.20357 0.65811-0.44091 0.95673-0.71246 0.54276-0.46128 0.9566-1.0176 1.2416-1.669 0.28499-0.6514 0.40034-1.3298 0.34599-2.0354 0.6514 0.67844 1.2214 1.2619 1.7099 1.7504 0.43421 0.43418 0.83439 0.83455 1.2008 1.2009 0.36641 0.36641 0.54965 0.53602 0.54965 0.5088"></path><path d="m50.238 26.502-2.0354 3.5824h-7.6534s0.12208-0.20357 0.36641-0.61071c0.24423-0.40708 0.54956-0.9363 0.91594-1.5876 0.36641-0.65131 0.77355-1.3841 1.2214-2.1984 0.44762-0.81403 0.87512-1.6282 1.2823-2.4425 0.97703-1.9812 1.6148-3.7792 1.9132-5.394 0.29862-1.6148 0.32575-2.8972 0.08142-3.8471-0.18988-0.75983-0.59702-1.2891-1.2212-1.5876-0.75983-0.40704-1.7437-0.52922-2.9514-0.36641-1.2078 0.16294-2.6394 0.80062-4.2949 1.9133-0.70557 0.48856-1.3433 0.98376-1.9133 1.486-0.56998 0.502-1.072 0.98382-1.5063 1.4451v13.027l-3.6639-3.5418v-14.33h-3.0532l2.0356-3.5824h4.6815v4.8037c0.19004-0.2171 0.39345-0.4343 0.61065-0.65131 0.21717-0.21717 0.43418-0.43427 0.65137-0.65137 0.43421-0.40708 0.96343-0.82095 1.5876-1.2417 0.62427-0.42058 1.3028-0.79379 2.0356-1.1195 0.73261-0.32556 1.4994-0.59702 2.2999-0.81406 0.80068-0.21717 1.5673-0.32572 2.3001-0.32572 1.0314 0 1.9812 0.21701 2.8497 0.65137 0.78708 0.43421 1.4655 1.0042 2.0355 1.7098 0.56983 0.70566 0.96343 1.5063 1.1805 2.4018 0.24423 0.97706 0.28499 1.9676 0.12209 2.9718-0.16284 1.0042-0.44784 2.0152-0.85479 3.0329-0.40708 1.0178-0.89564 2.0287-1.4656 3.0328-0.56989 1.0042-1.1534 1.9677-1.7504 2.8905-0.16284 0.24414-0.31895 0.47484-0.46816 0.69194-0.14937 0.2171-0.29188 0.43421-0.42747 0.6514z"></path><path d="m14.139 3.846c7.74 0 14.015 6.2746 14.015 14.015 0 7.74-6.2745 14.015-14.015 14.015-7.7401 0-14.015-6.2747-14.015-14.015 0-7.7399 6.2745-14.015 14.015-14.015z" fill="none" stroke="#a7a5a6" stroke-linecap="round" stroke-linejoin="round" stroke-miterlimit="22.926" stroke-width=".24948"></path><path d="m14.139 31.872-13.482-17.786h26.964l-6.741 8.8927z" fill="none" stroke="#a7a5a6" stroke-linecap="round" stroke-linejoin="round" stroke-miterlimit="22.926" stroke-width=".24918"></path><path d="m14.139 28.436-9.3334-17.234h18.667l-4.6666 8.617z" fill="none" stroke="#a7a5a6" stroke-linecap="round" stroke-linejoin="round" stroke-miterlimit="22.926" stroke-width=".24973"></path><path d="m14.139 24.972-4.6982-9.0473h9.3964l-2.3491 4.5236z" fill="none" stroke="#a7a5a6" stroke-linecap="round" stroke-linejoin="round" stroke-miterlimit="22.926" stroke-width=".24951"></path><path d="m14.139 19.699-8.1154-12.015h16.231l-4.0577 6.0074z" fill="none" stroke="#a7a5a6" stroke-linecap="round" stroke-linejoin="round" stroke-miterlimit="22.926" stroke-width=".24875"></path><path d="m14.139 21.588-1.6975-2.0912-1.6975-2.0914h6.7901l-1.6975 2.0914z" fill="none" stroke="#a7a5a6" stroke-linecap="round" stroke-linejoin="round" stroke-miterlimit="22.926" stroke-width=".24924"></path><path d="m14.139 3.8499-13.482 17.751h26.964l-6.741-8.8755z" fill="none" stroke="#a7a5a6" stroke-linecap="round" stroke-linejoin="round" stroke-miterlimit="22.926" stroke-width=".24946"></path><path d="m14.139 7.6653-4.987 8.6597-4.987 8.6595h19.948l-4.987-8.6595z" fill="none" stroke="#a7a5a6" stroke-linecap="round" stroke-linejoin="round" stroke-miterlimit="22.926" stroke-width=".24974"></path><path d="m14.139 14.136-6.8306 14.274h13.661l-3.4153-7.1368z" fill="none" stroke="#a7a5a6" stroke-linecap="round" stroke-linejoin="round" stroke-miterlimit="22.926" stroke-width=".24963"></path><path d="m14.139 11.207-2.3604 4.2466-2.3605 4.2466h9.4417l-2.3603-4.2466z" fill="none" stroke="#a7a5a6" stroke-linecap="round" stroke-linejoin="round" stroke-miterlimit="22.926" stroke-width=".24911"></path><path d="m22.294 11.944h-1.5694l0.04226 17.954-3.7542-3.643 0.04226-8.7389h-7.5082c-0.39364 0.02809-0.68895 0.08432-0.88591 0.16864-0.6185 0.28128-0.88572 0.82263-0.8013 1.6382 0.16867 1.624 1.1247 3.4869 2.8684 5.589 1.5184 1.8208 2.4322 2.7277 2.7416 2.7277l-2.4885 2.1513c-1.4624-1.4342-2.5591-2.6012-3.2903-3.5011-2.2215-2.7559-3.3323-5.118-3.3323-7.0865 0-1.4905 0.44986-2.6574 1.3426-3.501 0.70311-0.67492 1.4624-1.0123 2.2709-1.0123h9.083v-2.7456h-14.151l1.3904-3.5815h19.813z" fill="#c4161d"></path></svg>